<svg width="56" height="56" viewBox="0 0 56 56" fill="none" xmlns="http://www.w3.org/2000/svg">
<g clip-path="url(#clip0)">
<path d="M27.7129 55.5493C42.9007 55.5493 55.2129 43.2371 55.2129 28.0493C55.2129 12.8615 42.9007 0.549316 27.7129 0.549316C12.5251 0.549316 0.212891 12.8615 0.212891 28.0493C0.212891 43.2371 12.5251 55.5493 27.7129 55.5493Z" fill="#1AB495"/>
<path d="M37.4629 37.7349C34.4963 37.7349 31.6673 37.0887 29.0582 35.8134C28.6491 35.6174 28.1748 35.5865 27.7416 35.7343C27.3085 35.8856 26.9545 36.2018 26.7551 36.6109L25.5176 39.1718C21.8051 37.0406 18.7251 33.9571 16.5904 30.2446L19.1548 29.0071C19.5673 28.8078 19.8801 28.4537 20.0313 28.0206C20.1791 27.5874 20.1516 27.1131 19.9523 26.704C18.6735 24.0984 18.0273 21.2693 18.0273 18.2993C18.0273 17.3506 17.2573 16.5806 16.3085 16.5806H9.96289C9.01414 16.5806 8.24414 17.3506 8.24414 18.2993C8.24414 34.4109 21.3513 47.5181 37.4629 47.5181C38.4116 47.5181 39.1816 46.7481 39.1816 45.7993V39.4537C39.1816 38.5049 38.4116 37.7349 37.4629 37.7349Z" fill="#FAFAFA"/>
</g>
<g clip-path="url(#clip1)">
<path d="M32.4883 29.5978C32.307 29.7802 32.0595 29.882 31.8025 29.882C31.5454 29.882 31.298 29.7802 31.1166 29.5978L25.6392 24.1195C25.0708 23.551 25.0708 22.6293 25.6392 22.0619L26.3251 21.3759C26.8937 20.8075 27.8144 20.8075 28.3828 21.3759L31.8025 24.7957L41.0429 15.5551C41.6115 14.9867 42.5331 14.9867 43.1007 15.5551L43.7865 16.2411C44.355 16.8096 44.355 17.7312 43.7865 18.2987L32.4883 29.5978Z" fill="white"/>
</g>
<defs>
<clipPath id="clip0">
<rect width="55" height="55" fill="white" transform="translate(0.212891 0.549316)"/>
</clipPath>
<clipPath id="clip1">
<rect width="19" height="19" fill="white" transform="translate(25.2129 13)"/>
</clipPath>
</defs>
</svg>
