<svg width="56" height="56" viewBox="0 0 56 56" fill="none" xmlns="http://www.w3.org/2000/svg">
<g clip-path="url(#clip0)">
<path d="M27.728 55.5493C42.9159 55.5493 55.228 43.2371 55.228 28.0493C55.228 12.8615 42.9159 0.549316 27.728 0.549316C12.5402 0.549316 0.228027 12.8615 0.228027 28.0493C0.228027 43.2371 12.5402 55.5493 27.728 55.5493Z" fill="#FF9188"/>
<path d="M37.478 37.7349C34.5115 37.7349 31.6824 37.0887 29.0733 35.8134C28.6643 35.6174 28.1899 35.5865 27.7568 35.7343C27.3237 35.8856 26.9696 36.2018 26.7702 36.6109L25.5327 39.1718C21.8202 37.0406 18.7402 33.9571 16.6055 30.2446L19.1699 29.0071C19.5824 28.8078 19.8952 28.4537 20.0465 28.0206C20.1943 27.5874 20.1668 27.1131 19.9674 26.704C18.6887 24.0984 18.0424 21.2693 18.0424 18.2993C18.0424 17.3506 17.2724 16.5806 16.3237 16.5806H9.97803C9.02928 16.5806 8.25928 17.3506 8.25928 18.2993C8.25928 34.4109 21.3665 47.5181 37.478 47.5181C38.4268 47.5181 39.1968 46.7481 39.1968 45.7993V39.4537C39.1968 38.5049 38.4268 37.7349 37.478 37.7349Z" fill="#FAFAFA"/>
</g>
<path d="M36.029 15.5367L35.5105 24.9901H31.7212L31.2026 15.5367H36.029ZM35.8096 26.3662V30.5942H31.422V26.3662H35.8096Z" fill="white"/>
<defs>
<clipPath id="clip0">
<rect width="55" height="55" fill="white" transform="translate(0.228027 0.549316)"/>
</clipPath>
</defs>
</svg>
