<svg width="56" height="56" viewBox="0 0 56 56" fill="none" xmlns="http://www.w3.org/2000/svg">
<g clip-path="url(#clip0)">
<path d="M27.7129 55.5493C42.9007 55.5493 55.2129 43.2371 55.2129 28.0493C55.2129 12.8615 42.9007 0.549316 27.7129 0.549316C12.5251 0.549316 0.212891 12.8615 0.212891 28.0493C0.212891 43.2371 12.5251 55.5493 27.7129 55.5493Z" fill="#4478FE" fill-opacity="0.8"/>
<path d="M41.4629 33.7349C38.4963 33.7349 35.6673 33.0887 33.0582 31.8134C32.6491 31.6174 32.1748 31.5865 31.7416 31.7343C31.3085 31.8856 30.9545 32.2018 30.7551 32.6109L29.5176 35.1718C25.8051 33.0406 22.7251 29.9571 20.5904 26.2446L23.1548 25.0071C23.5673 24.8078 23.8801 24.4537 24.0313 24.0206C24.1791 23.5874 24.1516 23.1131 23.9523 22.704C22.6735 20.0984 22.0273 17.2693 22.0273 14.2993C22.0273 13.3506 21.2573 12.5806 20.3085 12.5806H13.9629C13.0141 12.5806 12.2441 13.3506 12.2441 14.2993C12.2441 30.4109 25.3513 43.5181 41.4629 43.5181C42.4116 43.5181 43.1816 42.7481 43.1816 41.7993V35.4537C43.1816 34.5049 42.4116 33.7349 41.4629 33.7349Z" fill="#FAFAFA"/>
</g>
<defs>
<clipPath id="clip0">
<rect width="55" height="55" fill="white" transform="translate(0.212891 0.549316)"/>
</clipPath>
</defs>
</svg>
