<svg width="43" height="42" viewBox="0 0 43 42" fill="none" xmlns="http://www.w3.org/2000/svg">
<rect x="0.5" width="42" height="42" rx="20" fill="#FF964F"/>
<path d="M27.5 23V20H24.5V18H27.5V15H29.5V18H32.5V20H29.5V23H27.5ZM18.5 21C17.4 21 16.4583 20.6083 15.675 19.825C14.8917 19.0417 14.5 18.1 14.5 17C14.5 15.9 14.8917 14.9583 15.675 14.175C16.4583 13.3917 17.4 13 18.5 13C19.6 13 20.5417 13.3917 21.325 14.175C22.1083 14.9583 22.5 15.9 22.5 17C22.5 18.1 22.1083 19.0417 21.325 19.825C20.5417 20.6083 19.6 21 18.5 21ZM10.5 29V26.2C10.5 25.6333 10.6458 25.1125 10.9375 24.6375C11.2292 24.1625 11.6167 23.8 12.1 23.55C13.1333 23.0333 14.1833 22.6458 15.25 22.3875C16.3167 22.1292 17.4 22 18.5 22C19.6 22 20.6833 22.1292 21.75 22.3875C22.8167 22.6458 23.8667 23.0333 24.9 23.55C25.3833 23.8 25.7708 24.1625 26.0625 24.6375C26.3542 25.1125 26.5 25.6333 26.5 26.2V29H10.5ZM12.5 27H24.5V26.2C24.5 26.0167 24.4542 25.85 24.3625 25.7C24.2708 25.55 24.15 25.4333 24 25.35C23.1 24.9 22.1917 24.5625 21.275 24.3375C20.3583 24.1125 19.4333 24 18.5 24C17.5667 24 16.6417 24.1125 15.725 24.3375C14.8083 24.5625 13.9 24.9 13 25.35C12.85 25.4333 12.7292 25.55 12.6375 25.7C12.5458 25.85 12.5 26.0167 12.5 26.2V27ZM18.5 19C19.05 19 19.5208 18.8042 19.9125 18.4125C20.3042 18.0208 20.5 17.55 20.5 17C20.5 16.45 20.3042 15.9792 19.9125 15.5875C19.5208 15.1958 19.05 15 18.5 15C17.95 15 17.4792 15.1958 17.0875 15.5875C16.6958 15.9792 16.5 16.45 16.5 17C16.5 17.55 16.6958 18.0208 17.0875 18.4125C17.4792 18.8042 17.95 19 18.5 19Z" fill="white"/>
</svg>
