<svg width="42" height="42" viewBox="0 0 42 42" fill="none" xmlns="http://www.w3.org/2000/svg">
<circle cx="21" cy="21" r="21" fill="#EC5F00"/>
<path d="M25 20V17H22V15.5H25V12.5H26.5V15.5H29.5V17H26.5V20H25ZM28.4402 29.5C26.5557 29.5 24.6625 29.0618 22.7605 28.1855C20.8587 27.3092 19.1113 26.073 17.5183 24.477C15.9254 22.8808 14.6908 21.1333 13.8145 19.2345C12.9382 17.3358 12.5 15.4443 12.5 13.5598C12.5 13.2569 12.6 13.0046 12.8 12.8027C13 12.6009 13.25 12.5 13.55 12.5H16.8115C17.064 12.5 17.2868 12.5824 17.4798 12.7473C17.6727 12.9119 17.7955 13.1154 17.848 13.3577L18.4213 16.3C18.4609 16.573 18.4526 16.8076 18.3963 17.0038C18.3398 17.1999 18.2384 17.3647 18.0923 17.498L15.7827 19.7462C16.1544 20.4269 16.5791 21.0708 17.0567 21.678C17.5342 22.285 18.0512 22.8647 18.6077 23.4173C19.1564 23.9661 19.7397 24.4757 20.3577 24.9462C20.9757 25.4167 21.6431 25.8546 22.3598 26.2598L24.6038 23.9963C24.7603 23.8334 24.9498 23.7192 25.1723 23.6538C25.3946 23.5884 25.6257 23.5724 25.8655 23.6058L28.6423 24.1713C28.8948 24.2379 29.1008 24.3667 29.2605 24.5577C29.4202 24.7487 29.5 24.9654 29.5 25.2078V28.45C29.5 28.75 29.3991 29 29.1973 29.2C28.9954 29.4 28.7431 29.5 28.4402 29.5ZM15.073 18.327L16.8577 16.6193C16.8898 16.5936 16.9106 16.5583 16.9202 16.5135C16.9299 16.4687 16.9283 16.427 16.9155 16.3885L16.4808 14.1538C16.4679 14.1026 16.4455 14.0642 16.4135 14.0385C16.3815 14.0128 16.3398 14 16.2885 14H14.15C14.1115 14 14.0794 14.0128 14.0537 14.0385C14.0282 14.0642 14.0155 14.0963 14.0155 14.1348C14.0667 14.8181 14.1785 15.5123 14.351 16.2173C14.5233 16.9224 14.764 17.6257 15.073 18.327ZM23.773 26.9693C24.4358 27.2783 25.1272 27.5145 25.847 27.678C26.567 27.8413 27.2397 27.9384 27.8652 27.9693C27.9037 27.9693 27.9358 27.9564 27.9615 27.9307C27.9872 27.9051 28 27.873 28 27.8345V25.7308C28 25.6794 27.9872 25.6377 27.9615 25.6058C27.9358 25.5737 27.8974 25.5513 27.8462 25.5385L25.7462 25.1115C25.7077 25.0987 25.6741 25.0971 25.6453 25.1067C25.6164 25.1164 25.5859 25.1372 25.5538 25.1692L23.773 26.9693Z" fill="white"/>
</svg>
