<svg width="18" height="22" viewBox="0 0 18 22" fill="none" xmlns="http://www.w3.org/2000/svg">
<path d="M9.00189 10.8539C9.54085 10.8539 10.0016 10.662 10.3842 10.2781C10.767 9.89429 10.9584 9.43288 10.9584 8.89392C10.9584 8.35496 10.7665 7.89409 10.3826 7.51131C9.99874 7.12872 9.53724 6.93742 8.9981 6.93742C8.45914 6.93742 7.99837 7.12935 7.61577 7.51321C7.23299 7.89707 7.0416 8.35857 7.0416 8.89771C7.0416 9.43667 7.23353 9.89745 7.61739 10.28C8.00126 10.6626 8.46276 10.8539 9.00189 10.8539ZM9 21.3019C6.27361 18.9395 4.22918 16.741 2.86671 14.7063C1.50423 12.6714 0.822998 10.8033 0.822998 9.10192C0.822998 6.60195 1.63162 4.57801 3.24885 3.03011C4.86627 1.4822 6.78332 0.708252 9 0.708252C11.2167 0.708252 13.1337 1.4822 14.7511 3.03011C16.3684 4.57801 17.177 6.60195 17.177 9.10192C17.177 10.8033 16.4958 12.6714 15.1333 14.7063C13.7708 16.741 11.7264 18.9395 9 21.3019Z" fill="#6D6D6D"/>
</svg>
