<svg width="17" height="18" viewBox="0 0 17 18" fill="none" xmlns="http://www.w3.org/2000/svg">
<path d="M8.5 14.596L12.1538 10.9423L11.1 9.8885L9.25 11.7385V7.2885H7.75V11.7385L5.9 9.8885L4.84625 10.9423L8.5 14.596ZM1.5 4.90375V15.6923C1.5 15.7821 1.52883 15.8558 1.5865 15.9135C1.64417 15.9712 1.71792 16 1.80775 16H15.1923C15.2821 16 15.3558 15.9712 15.4135 15.9135C15.4712 15.8558 15.5 15.7821 15.5 15.6923V4.90375H1.5ZM1.88475 17.5C1.38592 17.5 0.947083 17.3106 0.56825 16.9318C0.189417 16.5529 0 16.1141 0 15.6152V4.00575C0 3.79175 0.0343332 3.58758 0.103 3.39325C0.1715 3.19908 0.274334 3.01992 0.4115 2.85575L1.8155 1.15775C1.9795 0.943583 2.18458 0.780416 2.43075 0.66825C2.67692 0.556083 2.93717 0.5 3.2115 0.5H13.7693C14.0436 0.5 14.3054 0.556083 14.5548 0.66825C14.8041 0.780416 15.0108 0.943583 15.175 1.15775L16.5885 2.875C16.7257 3.03917 16.8285 3.21992 16.897 3.41725C16.9657 3.61475 17 3.82058 17 4.03475V15.6152C17 16.1141 16.8106 16.5529 16.4318 16.9318C16.0529 17.3106 15.6141 17.5 15.1152 17.5H1.88475ZM1.8905 3.404H15.1L14.0095 2.10575C13.9775 2.07375 13.9407 2.04808 13.899 2.02875C13.8573 2.00958 13.8141 2 13.7693 2H3.22125C3.17642 2 3.13308 2.00958 3.09125 2.02875C3.04958 2.04808 3.01275 2.07375 2.98075 2.10575L1.8905 3.404Z" fill="#171717"/>
</svg>
