<svg width="14" height="22" viewBox="0 0 14 22" fill="none" xmlns="http://www.w3.org/2000/svg">
<path d="M3 21.8845C2.75517 21.8845 2.5465 21.7983 2.374 21.626C2.20167 21.4535 2.1155 21.2448 2.1155 21C2.1155 20.7552 2.20167 20.5465 2.374 20.374C2.5465 20.2017 2.75517 20.1155 3 20.1155C3.24483 20.1155 3.4535 20.2017 3.626 20.374C3.79833 20.5465 3.8845 20.7552 3.8845 21C3.8845 21.2448 3.79833 21.4535 3.626 21.626C3.4535 21.7983 3.24483 21.8845 3 21.8845ZM7 21.8845C6.75517 21.8845 6.5465 21.7983 6.374 21.626C6.20167 21.4535 6.1155 21.2448 6.1155 21C6.1155 20.7552 6.20167 20.5465 6.374 20.374C6.5465 20.2017 6.75517 20.1155 7 20.1155C7.24483 20.1155 7.4535 20.2017 7.626 20.374C7.79833 20.5465 7.8845 20.7552 7.8845 21C7.8845 21.2448 7.79833 21.4535 7.626 21.626C7.4535 21.7983 7.24483 21.8845 7 21.8845ZM11 21.8845C10.7552 21.8845 10.5465 21.7983 10.374 21.626C10.2017 21.4535 10.1155 21.2448 10.1155 21C10.1155 20.7552 10.2017 20.5465 10.374 20.374C10.5465 20.2017 10.7552 20.1155 11 20.1155C11.2448 20.1155 11.4535 20.2017 11.626 20.374C11.7983 20.5465 11.8845 20.7552 11.8845 21C11.8845 21.2448 11.7983 21.4535 11.626 21.626C11.4535 21.7983 11.2448 21.8845 11 21.8845ZM7 11.5C6.30133 11.5 5.71 11.258 5.226 10.774C4.742 10.29 4.5 9.69867 4.5 9V3C4.5 2.30133 4.742 1.71 5.226 1.226C5.71 0.741999 6.30133 0.5 7 0.5C7.69867 0.5 8.29 0.741999 8.774 1.226C9.258 1.71 9.5 2.30133 9.5 3V9C9.5 9.69867 9.258 10.29 8.774 10.774C8.29 11.258 7.69867 11.5 7 11.5ZM6.25 18.75V15.4578C4.6 15.2628 3.22917 14.5527 2.1375 13.3278C1.04583 12.1027 0.5 10.6602 0.5 9H2C2 10.3833 2.4875 11.5625 3.4625 12.5375C4.4375 13.5125 5.61667 14 7 14C8.38333 14 9.5625 13.5125 10.5375 12.5375C11.5125 11.5625 12 10.3833 12 9H13.5C13.5 10.6602 12.9542 12.1027 11.8625 13.3278C10.7708 14.5527 9.4 15.2628 7.75 15.4578V18.75H6.25ZM7 10C7.28333 10 7.52083 9.90417 7.7125 9.7125C7.90417 9.52083 8 9.28333 8 9V3C8 2.71667 7.90417 2.47917 7.7125 2.2875C7.52083 2.09583 7.28333 2 7 2C6.71667 2 6.47917 2.09583 6.2875 2.2875C6.09583 2.47917 6 2.71667 6 3V9C6 9.28333 6.09583 9.52083 6.2875 9.7125C6.47917 9.90417 6.71667 10 7 10Z" fill="#171717"/>
</svg>
