<svg width="48" height="48" viewBox="0 0 48 48" fill="none" xmlns="http://www.w3.org/2000/svg">
<rect width="48" height="48" rx="8" fill="#E9BE73"/>
<path d="M24.9615 23.0385V17.5385H26.4615V20.4848L31.6923 15.254L32.746 16.3078L27.5153 21.5385H30.4615V23.0385H24.9615ZM31.4402 32.5C29.5557 32.5 27.6625 32.0619 25.7605 31.1855C23.8587 30.3092 22.1113 29.073 20.5183 27.477C18.9254 25.8809 17.6908 24.1334 16.8145 22.2345C15.9382 20.3359 15.5 18.4443 15.5 16.5598C15.5 16.2569 15.6 16.0046 15.8 15.8028C16 15.6009 16.25 15.5 16.55 15.5H19.8115C20.064 15.5 20.2868 15.5824 20.4798 15.7473C20.6727 15.9119 20.7955 16.1154 20.848 16.3578L21.4213 19.3C21.4609 19.573 21.4526 19.8076 21.3963 20.0038C21.3398 20.1999 21.2384 20.3647 21.0923 20.498L18.7827 22.7463C19.1544 23.4269 19.5791 24.0709 20.0567 24.678C20.5342 25.285 21.0512 25.8648 21.6077 26.4173C22.1564 26.9661 22.7397 27.4758 23.3577 27.9463C23.9757 28.4168 24.6431 28.8546 25.3598 29.2598L27.6038 26.9963C27.7603 26.8334 27.9498 26.7193 28.1723 26.6538C28.3946 26.5884 28.6257 26.5724 28.8655 26.6058L31.6423 27.1713C31.8948 27.2379 32.1008 27.3668 32.2605 27.5578C32.4202 27.7488 32.5 27.9654 32.5 28.2078V31.45C32.5 31.75 32.3991 32 32.1973 32.2C31.9954 32.4 31.7431 32.5 31.4402 32.5ZM18.073 21.327L19.8577 19.6193C19.8898 19.5936 19.9106 19.5584 19.9202 19.5135C19.9299 19.4687 19.9283 19.427 19.9155 19.3885L19.4808 17.1538C19.4679 17.1026 19.4455 17.0642 19.4135 17.0385C19.3815 17.0129 19.3398 17 19.2885 17H17.15C17.1115 17 17.0794 17.0129 17.0537 17.0385C17.0282 17.0642 17.0155 17.0963 17.0155 17.1348C17.0667 17.8181 17.1785 18.5123 17.351 19.2173C17.5233 19.9224 17.764 20.6257 18.073 21.327ZM26.773 29.9693C27.4358 30.2783 28.1272 30.5145 28.847 30.678C29.567 30.8414 30.2397 30.9384 30.8652 30.9693C30.9037 30.9693 30.9358 30.9564 30.9615 30.9308C30.9872 30.9051 31 30.873 31 30.8345V28.7308C31 28.6794 30.9872 28.6378 30.9615 28.6058C30.9358 28.5738 30.8974 28.5514 30.8462 28.5385L28.7462 28.1115C28.7077 28.0987 28.6741 28.0971 28.6453 28.1068C28.6164 28.1164 28.5859 28.1373 28.5538 28.1693L26.773 29.9693Z" fill="white"/>
</svg>
