<svg width="34" height="34" viewBox="0 0 34 34" fill="none" xmlns="http://www.w3.org/2000/svg">
<path d="M8.49992 30.4587C7.51014 30.4587 6.67242 30.1158 5.98675 29.4302C5.30109 28.7445 4.95825 27.9068 4.95825 26.917V22.8306H9.20825V3.54199H29.0416V26.917C29.0416 27.9068 28.6988 28.7445 28.0131 29.4302C27.3274 30.1158 26.4897 30.4587 25.4999 30.4587H8.49992ZM25.4999 28.3337C25.9013 28.3337 26.2378 28.1979 26.5093 27.9264C26.7808 27.6548 26.9166 27.3184 26.9166 26.917V5.66699H11.3333V22.8306H24.0833V26.917C24.0833 27.3184 24.219 27.6548 24.4905 27.9264C24.7621 28.1979 25.0985 28.3337 25.4999 28.3337ZM13.0223 12.3143V10.1893H25.2276V12.3143H13.0223ZM13.0223 16.4011V14.2761H25.2276V16.4011H13.0223ZM8.49992 28.3337H21.9583V24.9553H7.08325V26.917C7.08325 27.3184 7.21902 27.6548 7.49054 27.9264C7.76207 28.1979 8.09853 28.3337 8.49992 28.3337ZM8.49992 28.3337H7.08325H21.9583H8.49992Z" fill="#271078"/>
</svg>
