<svg width="26" height="28" viewBox="0 0 26 28" fill="none" xmlns="http://www.w3.org/2000/svg">
<path d="M4.49967 27.4587C3.5099 27.4587 2.67217 27.1158 1.98651 26.4302C1.30084 25.7445 0.958008 24.9068 0.958008 23.917V19.8306H5.20801V0.541992H25.0413V23.917C25.0413 24.9068 24.6985 25.7445 24.0128 26.4302C23.3272 27.1158 22.4895 27.4587 21.4997 27.4587H4.49967ZM21.4997 25.3337C21.9011 25.3337 22.2375 25.1979 22.509 24.9264C22.7806 24.6548 22.9163 24.3184 22.9163 23.917V2.66699H7.33301V19.8306H20.083V23.917C20.083 24.3184 20.2188 24.6548 20.4903 24.9264C20.7618 25.1979 21.0983 25.3337 21.4997 25.3337ZM9.02203 9.31435V7.18935H21.2273V9.31435H9.02203ZM9.02203 13.4011V11.2761H21.2273V13.4011H9.02203ZM4.49967 25.3337H17.958V21.9553H3.08301V23.917C3.08301 24.3184 3.21877 24.6548 3.4903 24.9264C3.76183 25.1979 4.09829 25.3337 4.49967 25.3337ZM4.49967 25.3337H3.08301H17.958H4.49967Z" fill="#171717"/>
</svg>
