<svg width="34" height="34" viewBox="0 0 34 34" fill="none" xmlns="http://www.w3.org/2000/svg">
<path d="M3.70532 14.0444C3.70532 11.9558 4.14886 10.0278 5.03593 8.26055C5.92323 6.4935 7.12067 5.00151 8.62824 3.7846L9.9383 5.4382C8.67605 6.45891 7.67577 7.7103 6.93745 9.19237C6.19936 10.6744 5.83032 12.2918 5.83032 14.0444H3.70532ZM28.1697 14.0444C28.1697 12.2918 27.8007 10.6722 27.0626 9.18564C26.3243 7.69908 25.324 6.44533 24.0618 5.42439L25.3718 3.7846C26.8794 5.00151 28.0768 6.4935 28.9641 8.26055C29.8512 10.0278 30.2947 11.9558 30.2947 14.0444H28.1697ZM6.37503 26.7534V24.6287H8.93601V14.0579C8.93601 12.1527 9.52404 10.4682 10.7001 9.0043C11.8759 7.54042 13.3856 6.60412 15.2292 6.19541V5.31283C15.2292 4.82242 15.4018 4.40474 15.747 4.05978C16.0919 3.71459 16.5096 3.54199 17 3.54199C17.4904 3.54199 17.9081 3.71459 18.2531 4.05978C18.5983 4.40474 18.7709 4.82242 18.7709 5.31283V6.19541C20.6144 6.60412 22.1241 7.54042 23.2999 9.0043C24.476 10.4682 25.0641 12.1527 25.0641 14.0579V24.6287H27.625V26.7534H6.37503ZM17 30.731C16.2936 30.731 15.6902 30.4809 15.1899 29.9805C14.6893 29.4802 14.4391 28.8767 14.4391 28.17H19.561C19.561 28.8767 19.3107 29.4802 18.8102 29.9805C18.3099 30.4809 17.7065 30.731 17 30.731ZM11.061 24.6287H22.9391V14.0579C22.9391 12.4179 22.3593 11.0181 21.1997 9.85855C20.04 8.69878 18.6401 8.11889 17 8.11889C15.36 8.11889 13.9601 8.69878 12.8003 9.85855C11.6408 11.0181 11.061 12.4179 11.061 14.0579V24.6287Z" fill="#271078"/>
</svg>
