<svg width="24" height="24" viewBox="0 0 24 24" fill="none" xmlns="http://www.w3.org/2000/svg">
<path d="M12 1.93115V0.0561523H23.875V1.93115H12ZM12 6.54646V4.67146H23.875V6.54646H12ZM12 11.1618V9.28678H23.875V11.1618H12ZM20.0503 23.8062C17.6947 23.8062 15.3281 23.2584 12.9506 22.163C10.5733 21.0676 8.38906 19.5224 6.39781 17.5274C4.40677 15.5322 2.86354 13.3478 1.76813 10.9743C0.672708 8.60094 0.125 6.23647 0.125 3.88084C0.125 3.5023 0.25 3.18688 0.5 2.93459C0.75 2.6823 1.0625 2.55615 1.4375 2.55615H5.51437C5.83 2.55615 6.10844 2.65917 6.34969 2.86522C6.59094 3.07105 6.74438 3.32542 6.81 3.62834L7.52656 7.30615C7.57615 7.6474 7.56573 7.94063 7.49531 8.18584C7.42469 8.43105 7.29802 8.63698 7.11531 8.80365L4.22844 11.614C4.69302 12.4648 5.22385 13.2697 5.82094 14.0287C6.41781 14.7874 7.06406 15.5121 7.75969 16.2027C8.44552 16.8888 9.17469 17.5258 9.94719 18.114C10.7197 18.7021 11.5539 19.2494 12.4497 19.7558L15.2547 16.9265C15.4503 16.7229 15.6872 16.5802 15.9653 16.4983C16.2432 16.4167 16.5321 16.3967 16.8319 16.4383L20.3028 17.1452C20.6184 17.2285 20.876 17.3896 21.0756 17.6283C21.2752 17.8671 21.375 18.1379 21.375 18.4408V22.4937C21.375 22.8687 21.2489 23.1812 20.9966 23.4312C20.7443 23.6812 20.4289 23.8062 20.0503 23.8062ZM3.34125 9.8399L5.57219 7.70522C5.61219 7.67313 5.63823 7.62907 5.65031 7.57303C5.6624 7.51698 5.66042 7.4649 5.64437 7.41678L5.10094 4.62334C5.0849 4.55938 5.05688 4.51136 5.01688 4.47928C4.97688 4.44719 4.92479 4.43115 4.86062 4.43115H2.1875C2.13937 4.43115 2.09927 4.44719 2.06719 4.47928C2.03531 4.51136 2.01937 4.55147 2.01937 4.59959C2.08333 5.45376 2.22312 6.32147 2.43875 7.20271C2.65417 8.08417 2.955 8.96324 3.34125 9.8399ZM14.2162 20.6427C15.0448 21.029 15.909 21.3243 16.8088 21.5287C17.7087 21.7328 18.5497 21.8542 19.3316 21.8927C19.3797 21.8927 19.4198 21.8767 19.4519 21.8446C19.484 21.8125 19.5 21.7724 19.5 21.7243V19.0946C19.5 19.0304 19.484 18.9783 19.4519 18.9383C19.4198 18.8983 19.3718 18.8703 19.3078 18.8543L16.6828 18.3205C16.6347 18.3045 16.5926 18.3025 16.5566 18.3146C16.5205 18.3267 16.4824 18.3527 16.4422 18.3927L14.2162 20.6427Z" fill="#171717"/>
</svg>
