<svg width="48" height="48" viewBox="0 0 48 48" fill="none" xmlns="http://www.w3.org/2000/svg">
<rect width="48" height="48" rx="10" fill="#EC5F00"/>
<path d="M24 16V14.5H33.5V16H24ZM24 19.6923V18.1923H33.5V19.6923H24ZM24 23.3845V21.8845H33.5V23.3845H24ZM30.4402 33.5C28.5557 33.5 26.6625 33.0618 24.7605 32.1855C22.8587 31.3092 21.1113 30.073 19.5183 28.477C17.9254 26.8808 16.6908 25.1333 15.8145 23.2345C14.9382 21.3358 14.5 19.4443 14.5 17.5598C14.5 17.2569 14.6 17.0046 14.8 16.8027C15 16.6009 15.25 16.5 15.55 16.5H18.8115C19.064 16.5 19.2868 16.5824 19.4798 16.7473C19.6727 16.9119 19.7955 17.1154 19.848 17.3577L20.4213 20.3C20.4609 20.573 20.4526 20.8076 20.3963 21.0038C20.3398 21.1999 20.2384 21.3647 20.0923 21.498L17.7827 23.7463C18.1544 24.4269 18.5791 25.0708 19.0567 25.678C19.5342 26.285 20.0512 26.8647 20.6077 27.4173C21.1564 27.9661 21.7397 28.4757 22.3577 28.9462C22.9757 29.4167 23.6431 29.8546 24.3598 30.2598L26.6038 27.9962C26.7603 27.8334 26.9498 27.7193 27.1723 27.6538C27.3946 27.5884 27.6257 27.5724 27.8655 27.6058L30.6423 28.1712C30.8948 28.2379 31.1008 28.3667 31.2605 28.5577C31.4202 28.7487 31.5 28.9654 31.5 29.2078V32.45C31.5 32.75 31.3991 33 31.1973 33.2C30.9954 33.4 30.7431 33.5 30.4402 33.5ZM17.073 22.327L18.8577 20.6193C18.8898 20.5936 18.9106 20.5583 18.9202 20.5135C18.9299 20.4687 18.9283 20.427 18.9155 20.3885L18.4808 18.1538C18.4679 18.1026 18.4455 18.0642 18.4135 18.0385C18.3815 18.0128 18.3398 18 18.2885 18H16.15C16.1115 18 16.0794 18.0128 16.0537 18.0385C16.0282 18.0642 16.0155 18.0963 16.0155 18.1348C16.0667 18.8181 16.1785 19.5122 16.351 20.2173C16.5233 20.9224 16.764 21.6257 17.073 22.327ZM25.773 30.9693C26.4358 31.2783 27.1272 31.5145 27.847 31.678C28.567 31.8413 29.2397 31.9384 29.8652 31.9693C29.9037 31.9693 29.9358 31.9564 29.9615 31.9307C29.9872 31.9051 30 31.873 30 31.8345V29.7308C30 29.6794 29.9872 29.6377 29.9615 29.6058C29.9358 29.5737 29.8974 29.5513 29.8462 29.5385L27.7462 29.1115C27.7077 29.0987 27.6741 29.0971 27.6453 29.1068C27.6164 29.1164 27.5859 29.1373 27.5538 29.1693L25.773 30.9693Z" fill="white"/>
</svg>
