<svg width="48" height="48" viewBox="0 0 48 48" fill="none" xmlns="http://www.w3.org/2000/svg">
<rect width="48" height="48" rx="10" fill="#C0C0C0"/>
<path d="M31.8331 23.839C31.7687 21.6986 30.9893 19.8813 29.4949 18.3871C28.0005 16.8927 26.1832 16.1133 24.043 16.0489V14.375C25.3449 14.4036 26.5638 14.6704 27.6996 15.1754C28.8357 15.6806 29.8279 16.3573 30.6764 17.2056C31.5247 18.0541 32.2013 19.0462 32.7063 20.1821C33.2114 21.3181 33.4783 22.5371 33.507 23.839H31.8331ZM27.3693 23.839C27.305 22.9448 26.958 22.1811 26.3284 21.548C25.6988 20.9151 24.937 20.57 24.043 20.5127V18.8388C25.4007 18.8961 26.5574 19.4043 27.513 20.3634C28.4688 21.3228 28.9789 22.4813 29.0432 23.839H27.3693ZM32.2814 33.625C30.1784 33.625 28.0657 33.136 25.9431 32.1581C23.8208 31.1802 21.869 29.8007 20.0878 28.0196C18.3138 26.2384 16.9379 24.2883 15.9599 22.1693C14.982 20.0505 14.493 17.9396 14.493 15.8366C14.493 15.5018 14.6046 15.221 14.8278 14.9941C15.051 14.7673 15.33 14.654 15.6648 14.654H19.3044C19.5862 14.654 19.8347 14.746 20.0501 14.9299C20.2655 15.1137 20.4025 15.3408 20.4611 15.6112L21.1008 18.8946C21.145 19.1992 21.1357 19.461 21.0729 19.6799C21.0098 19.8988 20.8968 20.0827 20.7336 20.2315L18.1564 22.7404C18.5711 23.5 19.045 24.2185 19.5781 24.8961C20.1109 25.5735 20.6879 26.2204 21.3089 26.837C21.9212 27.4495 22.5722 28.0182 23.2618 28.5433C23.9515 29.0683 24.6962 29.5569 25.4959 30.0091L28.0001 27.4831C28.1747 27.3014 28.3862 27.174 28.6345 27.1009C28.8826 27.028 29.1405 27.0102 29.4081 27.0474L32.5068 27.6784C32.7886 27.7528 33.0186 27.8966 33.1968 28.1097C33.3749 28.3229 33.464 28.5647 33.464 28.8351V32.4533C33.464 32.788 33.3507 33.067 33.1239 33.2902C32.897 33.5134 32.6162 33.625 32.2814 33.625ZM17.3643 21.1566L19.356 19.2508C19.3917 19.2222 19.415 19.1828 19.4258 19.1328C19.4365 19.0828 19.4348 19.0363 19.4205 18.9933L18.9353 16.4995C18.921 16.4424 18.896 16.3995 18.8602 16.3709C18.8245 16.3422 18.778 16.3279 18.7208 16.3279H16.3343C16.2914 16.3279 16.2555 16.3422 16.2269 16.3709C16.1984 16.3995 16.1842 16.4353 16.1842 16.4783C16.2413 17.2408 16.3661 18.0155 16.5586 18.8022C16.7509 19.5891 17.0195 20.3739 17.3643 21.1566ZM27.073 30.8008C27.8127 31.1457 28.5842 31.4093 29.3875 31.5918C30.191 31.774 30.9417 31.8824 31.6397 31.9168C31.6827 31.9168 31.7185 31.9024 31.7471 31.8738C31.7758 31.8452 31.7901 31.8094 31.7901 31.7664V29.4187C31.7901 29.3614 31.7758 29.315 31.7471 29.2792C31.7185 29.2435 31.6756 29.2185 31.6185 29.2042L29.2751 28.7277C29.2321 28.7134 29.1945 28.7116 29.1623 28.7224C29.1302 28.7332 29.0961 28.7564 29.0602 28.7921L27.073 30.8008Z" fill="#171717"/>
</svg>
