<svg width="54" height="54" viewBox="0 0 54 54" fill="none" xmlns="http://www.w3.org/2000/svg">
<rect width="54" height="54" rx="10" fill="#E3F3FF"/>
<path d="M27.0003 26.4946C25.4197 26.4946 24.0668 25.932 22.9414 24.8066C21.8158 23.6809 21.2529 22.3278 21.2529 20.7473C21.2529 19.1668 21.8158 17.8139 22.9414 16.6885C24.0668 15.5628 25.4197 15 27.0003 15C28.5808 15 29.9337 15.5628 31.0591 16.6885C32.1848 17.8139 32.7476 19.1668 32.7476 20.7473C32.7476 22.3278 32.1848 23.6809 31.0591 24.8066C29.9337 25.932 28.5808 26.4946 27.0003 26.4946ZM14.6846 39V35.3492C14.6846 34.5451 14.903 33.8005 15.3398 33.1152C15.7766 32.4299 16.3603 31.903 17.0911 31.5346C18.714 30.739 20.3513 30.1423 22.003 29.7443C23.6546 29.3464 25.3204 29.1474 27.0003 29.1474C28.6801 29.1474 30.3459 29.3464 31.9976 29.7443C33.6492 30.1423 35.2865 30.739 36.9095 31.5346C37.6402 31.903 38.224 32.4299 38.6608 33.1152C39.0976 33.8005 39.316 34.5451 39.316 35.3492V39H14.6846ZM17.1477 36.5369H36.8528V35.3492C36.8528 35.0167 36.7565 34.7088 36.5638 34.4255C36.3711 34.1426 36.1096 33.9116 35.7793 33.7326C34.3644 33.0358 32.9218 32.5079 31.4516 32.1488C29.9811 31.79 28.4973 31.6106 27.0003 31.6106C25.5032 31.6106 24.0195 31.79 22.549 32.1488C21.0787 32.5079 19.6362 33.0358 18.2212 33.7326C17.8909 33.9116 17.6294 34.1426 17.4367 34.4255C17.244 34.7088 17.1477 35.0167 17.1477 35.3492V36.5369ZM27.0003 24.0315C27.9034 24.0315 28.6766 23.7099 29.3197 23.0668C29.9629 22.4236 30.2844 21.6505 30.2844 20.7473C30.2844 19.8442 29.9629 19.071 29.3197 18.4279C28.6766 17.7847 27.9034 17.4631 27.0003 17.4631C26.0971 17.4631 25.324 17.7847 24.6808 18.4279C24.0377 19.071 23.7161 19.8442 23.7161 20.7473C23.7161 21.6505 24.0377 22.4236 24.6808 23.0668C25.324 23.7099 26.0971 24.0315 27.0003 24.0315Z" fill="#2196F3"/>
</svg>
