<svg width="24" height="24" viewBox="0 0 24 24" fill="none" xmlns="http://www.w3.org/2000/svg">
<path d="M16.3412 17.6587L17.6588 16.3413L12.9375 11.62V5.75H11.0625V12.3797L16.3412 17.6587ZM12.0022 23.875C10.3597 23.875 8.81583 23.5633 7.37062 22.94C5.92542 22.3167 4.66833 21.4707 3.59937 20.4022C2.53042 19.3336 1.68406 18.0771 1.06031 16.6325C0.436771 15.1879 0.125 13.6445 0.125 12.0022C0.125 10.3597 0.436667 8.81583 1.06 7.37062C1.68333 5.92542 2.52927 4.66833 3.59781 3.59937C4.66635 2.53042 5.92292 1.68406 7.3675 1.06031C8.81208 0.436771 10.3555 0.125 11.9978 0.125C13.6403 0.125 15.1842 0.436666 16.6294 1.06C18.0746 1.68333 19.3317 2.52927 20.4006 3.59781C21.4696 4.66635 22.3159 5.92292 22.9397 7.3675C23.5632 8.81208 23.875 10.3555 23.875 11.9978C23.875 13.6403 23.5633 15.1842 22.94 16.6294C22.3167 18.0746 21.4707 19.3317 20.4022 20.4006C19.3336 21.4696 18.0771 22.3159 16.6325 22.9397C15.1879 23.5632 13.6445 23.875 12.0022 23.875ZM12 22C14.7708 22 17.1302 21.026 19.0781 19.0781C21.026 17.1302 22 14.7708 22 12C22 9.22917 21.026 6.86979 19.0781 4.92188C17.1302 2.97396 14.7708 2 12 2C9.22917 2 6.86979 2.97396 4.92188 4.92188C2.97396 6.86979 2 9.22917 2 12C2 14.7708 2.97396 17.1302 4.92188 19.0781C6.86979 21.026 9.22917 22 12 22Z" fill="#171717"/>
</svg>
