<svg width="28" height="28" viewBox="0 0 28 28" fill="#000000" xmlns="http://www.w3.org/2000/svg">
<path d="M8.9 20.5929L14 15.4929L19.1 20.5929L20.5928 19.1001L15.4928 14.0001L20.5928 8.90008L19.1 7.40727L14 12.5073L8.9 7.40727L7.40719 8.90008L12.5072 14.0001L7.40719 19.1001L8.9 20.5929ZM14.0025 27.4584C12.141 27.4584 10.3913 27.1052 8.75338 26.3987C7.11547 25.6923 5.69078 24.7336 4.47929 23.5226C3.26781 22.3115 2.30861 20.8874 1.60169 19.2502C0.895008 17.6131 0.541668 15.8638 0.541668 14.0026C0.541668 12.1411 0.89489 10.3914 1.60133 8.75346C2.30778 7.11555 3.26651 5.69086 4.47752 4.47937C5.68854 3.26789 7.11264 2.30869 8.74984 1.60177C10.387 0.895088 12.1363 0.541748 13.9975 0.541748C15.859 0.541748 17.6087 0.89497 19.2466 1.60141C20.8845 2.30786 22.3092 3.26659 23.5207 4.4776C24.7322 5.68862 25.6914 7.11272 26.3983 8.74992C27.105 10.3871 27.4583 12.1363 27.4583 13.9976C27.4583 15.8591 27.1051 17.6088 26.3987 19.2467C25.6922 20.8846 24.7335 22.3093 23.5225 23.5208C22.3115 24.7323 20.8874 25.6915 19.2502 26.3984C17.613 27.1051 15.8637 27.4584 14.0025 27.4584ZM14 25.3334C17.1639 25.3334 19.8438 24.2355 22.0396 22.0397C24.2354 19.8438 25.3333 17.164 25.3333 14.0001C25.3333 10.8362 24.2354 8.15633 22.0396 5.9605C19.8438 3.76466 17.1639 2.66675 14 2.66675C10.8361 2.66675 8.15625 3.76466 5.96042 5.9605C3.76458 8.15633 2.66667 10.8362 2.66667 14.0001C2.66667 17.164 3.76458 19.8438 5.96042 22.0397C8.15625 24.2355 10.8361 25.3334 14 25.3334Z" fill="#BEBEBE"/>
</svg>
