<svg width="20" height="22" viewBox="0 0 20 22" fill="none" xmlns="http://www.w3.org/2000/svg">
<path d="M2.25 21.1924V19.6924H17.75V21.1924H2.25ZM2.25 2.30786V0.807861H17.75V2.30786H2.25ZM10 12.5001C10.7628 12.5001 11.4118 12.2325 11.947 11.6974C12.4823 11.162 12.75 10.5129 12.75 9.75011C12.75 8.98728 12.4823 8.33828 11.947 7.80311C11.4118 7.26778 10.7628 7.00011 10 7.00011C9.23717 7.00011 8.58817 7.26778 8.053 7.80311C7.51767 8.33828 7.25 8.98728 7.25 9.75011C7.25 10.5129 7.51767 11.162 8.053 11.6974C8.58817 12.2325 9.23717 12.5001 10 12.5001ZM2.30775 18.5001C1.80258 18.5001 1.375 18.3251 1.025 17.9751C0.675 17.6251 0.5 17.1975 0.5 16.6924V5.30786C0.5 4.80269 0.675 4.37511 1.025 4.02511C1.375 3.67511 1.80258 3.50011 2.30775 3.50011H17.6923C18.1974 3.50011 18.625 3.67511 18.975 4.02511C19.325 4.37511 19.5 4.80269 19.5 5.30786V16.6924C19.5 17.1975 19.325 17.6251 18.975 17.9751C18.625 18.3251 18.1974 18.5001 17.6923 18.5001H2.30775ZM4.404 17.0001C5.154 16.1949 6.00142 15.577 6.94625 15.1464C7.89108 14.7155 8.909 14.5001 10 14.5001C11.091 14.5001 12.1089 14.7155 13.0538 15.1464C13.9986 15.577 14.846 16.1949 15.596 17.0001H17.6923C17.7693 17.0001 17.8398 16.968 17.9038 16.9039C17.9679 16.8399 18 16.7694 18 16.6924V5.30786C18 5.23086 17.9679 5.16036 17.9038 5.09636C17.8398 5.03219 17.7693 5.00011 17.6923 5.00011H2.30775C2.23075 5.00011 2.16025 5.03219 2.09625 5.09636C2.03208 5.16036 2 5.23086 2 5.30786V16.6924C2 16.7694 2.03208 16.8399 2.09625 16.9039C2.16025 16.968 2.23075 17.0001 2.30775 17.0001H4.404ZM6.7 17.0001H13.3C12.8167 16.6668 12.2958 16.4168 11.7375 16.2501C11.1792 16.0834 10.6 16.0001 10 16.0001C9.4 16.0001 8.82083 16.0834 8.2625 16.2501C7.70417 16.4168 7.18333 16.6668 6.7 17.0001ZM10 11.0001C9.6525 11.0001 9.35733 10.8787 9.1145 10.6359C8.8715 10.3929 8.75 10.0976 8.75 9.75011C8.75 9.40278 8.8715 9.10761 9.1145 8.86461C9.35733 8.62161 9.6525 8.50011 10 8.50011C10.3475 8.50011 10.6427 8.62161 10.8855 8.86461C11.1285 9.10761 11.25 9.40278 11.25 9.75011C11.25 10.0976 11.1285 10.3929 10.8855 10.6359C10.6427 10.8787 10.3475 11.0001 10 11.0001Z" fill="#171717"/>
</svg>
