<svg width="56" height="54" viewBox="0 0 56 54" fill="none" xmlns="http://www.w3.org/2000/svg">
<rect y="0.131592" width="56" height="53.7369" rx="10" fill="#FFE6D7"/>
<path d="M20.6745 40.6386C19.8344 40.6121 19.0352 40.3953 18.2771 39.9882C17.5192 39.5814 16.8024 38.9842 16.1268 38.1967C15.1195 37.0185 14.3336 35.593 13.769 33.9204C13.2043 32.2477 12.9219 30.5211 12.9219 28.7406C12.9219 26.6468 13.3156 24.6801 14.1031 22.8406C14.8907 21.001 15.9656 19.4001 17.3279 18.0377C18.6903 16.6754 20.2887 15.5979 22.1232 14.8054C23.9575 14.0128 25.9165 13.6166 28.0002 13.6166C30.084 13.6166 32.043 14.0169 33.8772 14.8177C35.7118 15.6184 37.3077 16.7055 38.665 18.079C40.0223 19.4527 41.0972 21.0649 41.8898 22.9156C42.6823 24.7662 43.0786 26.7497 43.0786 28.866C43.0786 30.7399 42.7758 32.5148 42.1703 34.1906C41.5651 35.8662 40.7151 37.2921 39.6205 38.4685C38.9406 39.1888 38.2339 39.7306 37.5004 40.0938C36.7668 40.457 36.0074 40.6386 35.222 40.6386C34.7966 40.6386 34.3764 40.5867 33.9613 40.483C33.5463 40.3791 33.1312 40.2234 32.7162 40.016L30.4941 38.905C30.1156 38.7156 29.7147 38.5736 29.2914 38.4792C28.8682 38.3845 28.4327 38.3372 27.9852 38.3372C27.5273 38.3372 27.0892 38.3845 26.671 38.4792C26.2527 38.5736 25.8595 38.7156 25.4913 38.905L23.2843 40.016C22.8428 40.2499 22.4104 40.4188 21.9871 40.5227C21.5639 40.6264 21.1264 40.665 20.6745 40.6386ZM20.7388 38.2578C20.9769 38.2578 21.2216 38.2313 21.4729 38.1784C21.7242 38.1255 21.9689 38.0329 22.207 37.9007L24.429 36.7896C24.9846 36.4987 25.5599 36.287 26.1551 36.1548C26.7503 36.0225 27.3521 35.9564 27.9606 35.9564C28.569 35.9564 29.1774 36.0225 29.7858 36.1548C30.3943 36.287 30.9762 36.4987 31.5317 36.7896L33.7935 37.9007C34.0316 38.0329 34.2697 38.1255 34.5077 38.1784C34.7458 38.2313 34.9839 38.2578 35.222 38.2578C35.7246 38.2578 36.2033 38.1255 36.658 37.861C37.1127 37.5965 37.5649 37.1997 38.0146 36.6706C38.8612 35.6654 39.52 34.4618 39.9911 33.0597C40.4622 31.6577 40.6978 30.211 40.6978 28.7195C40.6978 25.1748 39.4677 22.1683 37.0076 19.6999C34.5474 17.2315 31.545 15.9974 28.0002 15.9974C24.4555 15.9974 21.4531 17.2407 18.9929 19.7273C16.5327 22.2139 15.3027 25.2296 15.3027 28.7743C15.3027 30.2821 15.5499 31.7503 16.0443 33.1788C16.5387 34.6072 17.2174 35.8109 18.0803 36.7896C18.53 37.3187 18.9664 37.6957 19.3897 37.9205C19.813 38.1454 20.2627 38.2578 20.7388 38.2578ZM28.0002 31.4725C28.7713 31.4725 29.4271 31.2024 29.9676 30.6623C30.5077 30.1218 30.7778 29.4661 30.7778 28.6949C30.7778 28.4733 30.7503 28.254 30.6953 28.037C30.6405 27.8204 30.5633 27.6114 30.4636 27.4101L32.9205 24.1865C33.2462 24.5407 33.5311 24.93 33.7752 25.3543C34.0194 25.7786 34.2228 26.2358 34.3855 26.726H36.8457C36.3878 24.6119 35.3353 22.8904 33.6883 21.5617C32.0411 20.2329 30.1451 19.5686 28.0002 19.5686C25.8554 19.5686 23.9528 20.237 22.2923 21.574C20.6321 22.9109 19.5811 24.6283 19.1393 26.726H21.5844C22.0259 25.2875 22.8408 24.1317 24.0291 23.2588C25.2176 22.3858 26.5413 21.9494 28.0002 21.9494C28.5618 21.9494 29.0945 22.0169 29.5981 22.1521C30.1018 22.2876 30.5846 22.4804 31.0465 22.7307L28.5649 26.0027C28.4816 25.9826 28.3875 25.9632 28.2828 25.9447C28.1777 25.9265 28.0836 25.9173 28.0002 25.9173C27.2291 25.9173 26.5733 26.1874 26.0329 26.7276C25.4927 27.268 25.2226 27.9238 25.2226 28.6949C25.2226 29.4661 25.4927 30.1218 26.0329 30.6623C26.5733 31.2024 27.2291 31.4725 28.0002 31.4725Z" fill="#FF5E00"/>
</svg>
