<svg width="23" height="12" viewBox="0 0 23 12" fill="none" xmlns="http://www.w3.org/2000/svg">
<path d="M6 7.49391C5.5525 7.49391 5.17142 7.33658 4.85675 7.02191C4.54208 6.70725 4.38475 6.32616 4.38475 5.87866C4.38475 5.43116 4.54208 5.05008 4.85675 4.73541C5.17142 4.42075 5.5525 4.26341 6 4.26341C6.4475 4.26341 6.82858 4.42075 7.14325 4.73541C7.45792 5.05008 7.61525 5.43116 7.61525 5.87866C7.61525 6.32616 7.45792 6.70725 7.14325 7.02191C6.82858 7.33658 6.4475 7.49391 6 7.49391ZM6 11.3787C4.47433 11.3787 3.17625 10.8434 2.10575 9.77291C1.03525 8.70241 0.5 7.40433 0.5 5.87866C0.5 4.353 1.03525 3.05491 2.10575 1.98441C3.17625 0.913912 4.47433 0.378662 6 0.378662C7.07183 0.378662 8.04108 0.655246 8.90775 1.20841C9.77442 1.76175 10.4359 2.48516 10.8923 3.37866H19.8943L22.3943 5.87866L18.548 9.70541L16.6923 8.31141L14.7885 9.72466L12.8365 8.37866H10.8923C10.4359 9.26583 9.77442 9.98758 8.90775 10.5439C8.04108 11.1004 7.07183 11.3787 6 11.3787ZM6 9.87866C6.959 9.87866 7.78942 9.58891 8.49125 9.00941C9.19325 8.42991 9.65133 7.71966 9.8655 6.87866H13.3077L14.748 7.87491L16.702 6.44591L18.4 7.74416L20.2655 5.87866L19.2655 4.87866H9.8655C9.65133 4.03766 9.19325 3.32741 8.49125 2.74791C7.78942 2.16841 6.959 1.87866 6 1.87866C4.9 1.87866 3.95833 2.27033 3.175 3.05366C2.39167 3.837 2 4.77866 2 5.87866C2 6.97866 2.39167 7.92033 3.175 8.70366C3.95833 9.487 4.9 9.87866 6 9.87866Z" fill="#5F6368"/>
</svg>
