<svg width="22" height="20" viewBox="0 0 22 20" fill="none" xmlns="http://www.w3.org/2000/svg">
<path d="M10.9 19.5L15.3538 8.00002H16.9153L21.3693 19.5H19.7788L18.6463 16.45H13.623L12.4903 19.5H10.9ZM3.00951 16.5578L1.95576 15.5038L6.92876 10.5213C6.35193 9.93793 5.80359 9.2456 5.28376 8.44427C4.76376 7.64293 4.33584 6.82818 4.00001 6.00002H5.59026C5.87876 6.60518 6.22976 7.21035 6.64326 7.81552C7.05676 8.42052 7.50326 8.9711 7.98276 9.46727C8.69293 8.7506 9.36468 7.88043 9.99801 6.85677C10.6313 5.8331 11.0788 4.88085 11.3405 4.00002H0.692261V2.50002H7.25001V0.884766H8.75001V2.50002H15.3078V4.00002H12.8595C12.5352 5.12302 12.0183 6.29702 11.3088 7.52202C10.5991 8.74702 9.84168 9.75702 9.03651 10.552L11.5038 13.0788L10.9365 14.6193L7.98276 11.5903L3.00951 16.5578ZM14.1038 15.123H18.1653L16.1345 9.66727L14.1038 15.123Z" fill="#171717"/>
</svg>
