<svg width="18" height="18" viewBox="0 0 18 18" fill="none" xmlns="http://www.w3.org/2000/svg">
<path d="M2.30775 17.3787C1.80258 17.3787 1.375 17.2037 1.025 16.8537C0.675 16.5037 0.5 16.0761 0.5 15.5709V2.18641C0.5 1.68125 0.675 1.25366 1.025 0.903662C1.375 0.553662 1.80258 0.378662 2.30775 0.378662H9.0095V1.87866H2.30775C2.23075 1.87866 2.16025 1.91074 2.09625 1.97491C2.03208 2.03891 2 2.10941 2 2.18641V15.5709C2 15.6479 2.03208 15.7184 2.09625 15.7824C2.16025 15.8466 2.23075 15.8787 2.30775 15.8787H9.0095V17.3787H2.30775ZM13.2308 13.1479L12.1923 12.0632L14.627 9.62866H6.09625V8.12866H14.627L12.1923 5.69416L13.2308 4.60941L17.5 8.87866L13.2308 13.1479Z" fill="#5F6368"/>
</svg>
