<svg width="20" height="16" viewBox="0 0 20 16" fill="none" xmlns="http://www.w3.org/2000/svg">
<path d="M2.30775 15.3787C1.80258 15.3787 1.375 15.2037 1.025 14.8537C0.675 14.5037 0.5 14.0761 0.5 13.5709V2.18641C0.5 1.68125 0.675 1.25366 1.025 0.903662C1.375 0.553662 1.80258 0.378662 2.30775 0.378662H17.6923C18.1974 0.378662 18.625 0.553662 18.975 0.903662C19.325 1.25366 19.5 1.68125 19.5 2.18641V13.5709C19.5 14.0761 19.325 14.5037 18.975 14.8537C18.625 15.2037 18.1974 15.3787 17.6923 15.3787H2.30775ZM10 8.43641L2 3.32091V13.5709C2 13.6607 2.02883 13.7345 2.0865 13.7922C2.14417 13.8498 2.21792 13.8787 2.30775 13.8787H17.6923C17.7821 13.8787 17.8558 13.8498 17.9135 13.7922C17.9712 13.7345 18 13.6607 18 13.5709V3.32091L10 8.43641ZM10 6.87866L17.8463 1.87866H2.15375L10 6.87866ZM2 3.32091V1.87866V13.5709C2 13.6607 2.02883 13.7345 2.0865 13.7922C2.14417 13.8498 2.21792 13.8787 2.30775 13.8787H2V3.32091Z" fill="#5F6368"/>
</svg>
