<svg width="21" height="18" viewBox="0 0 21 18" fill="none" xmlns="http://www.w3.org/2000/svg">
<path d="M2.04171 17.125C1.49444 17.125 1.03123 16.9354 0.652063 16.5563C0.272896 16.1771 0.083313 15.7139 0.083313 15.1666V2.8334C0.083313 2.28613 0.272896 1.82292 0.652063 1.44375C1.03123 1.06458 1.49444 0.875 2.04171 0.875H18.7083C19.2555 0.875 19.7187 1.06458 20.0979 1.44375C20.4771 1.82292 20.6666 2.28613 20.6666 2.8334V15.1666C20.6666 15.7139 20.4771 16.1771 20.0979 16.5563C19.7187 16.9354 19.2555 17.125 18.7083 17.125H2.04171ZM10.375 9.60423L19.0416 4.06244L18.8751 2.5L10.375 7.91667L1.87488 2.5L1.70831 4.06244L10.375 9.60423Z" fill="#6D6D6D"/>
</svg>
