<svg width="28" height="27" viewBox="0 0 28 27" fill="none" xmlns="http://www.w3.org/2000/svg">
<path d="M5.854 16.4795H16.479V14.3545H5.854V16.4795ZM5.854 12.2295H22.1457V10.1045H5.854V12.2295ZM5.854 7.97949H22.1457V5.85449H5.854V7.97949ZM0.541504 26.8049V3.10297C0.541504 2.38732 0.789421 1.78158 1.28525 1.28574C1.78109 0.789909 2.38683 0.541992 3.10248 0.541992H24.8972C25.6128 0.541992 26.2186 0.789909 26.7144 1.28574C27.2103 1.78158 27.4582 2.38732 27.4582 3.10297V19.231C27.4582 19.9467 27.2103 20.5524 26.7144 21.0482C26.2186 21.5441 25.6128 21.792 24.8972 21.792H5.55438L0.541504 26.8049ZM4.64984 19.667H24.8972C25.0063 19.667 25.1061 19.6215 25.1968 19.5306C25.2877 19.44 25.3332 19.3401 25.3332 19.231V3.10297C25.3332 2.99389 25.2877 2.89401 25.1968 2.80335C25.1061 2.71244 25.0063 2.66699 24.8972 2.66699H3.10248C2.9934 2.66699 2.89352 2.71244 2.80286 2.80335C2.71196 2.89401 2.6665 2.99389 2.6665 3.10297V21.6287L4.64984 19.667Z" fill="#271078"/>
</svg>
