<svg width="26" height="20" viewBox="0 0 26 20" fill="none" xmlns="http://www.w3.org/2000/svg">
<path d="M15.1873 10.8373C14.314 10.8373 13.5748 10.5348 12.9698 9.92979C12.3648 9.32479 12.0623 8.58562 12.0623 7.71229C12.0623 6.83895 12.3648 6.09979 12.9698 5.49479C13.5748 4.88979 14.314 4.58729 15.1873 4.58729C16.0606 4.58729 16.7998 4.88979 17.4048 5.49479C18.0098 6.09979 18.3123 6.83895 18.3123 7.71229C18.3123 8.58562 18.0098 9.32479 17.4048 9.92979C16.7998 10.5348 16.0606 10.8373 15.1873 10.8373ZM6.94199 14.7076C6.32074 14.7076 5.78887 14.4863 5.34637 14.0438C4.90387 13.6013 4.68262 13.0694 4.68262 12.4479V2.97666C4.68262 2.35541 4.90387 1.82353 5.34637 1.38103C5.78887 0.938535 6.32074 0.717285 6.94199 0.717285H23.4323C24.0538 0.717285 24.5857 0.938535 25.0282 1.38103C25.4707 1.82353 25.692 2.35541 25.692 2.97666V12.4479C25.692 13.0694 25.4707 13.6013 25.0282 14.0438C24.5857 14.4863 24.0538 14.7076 23.4323 14.7076H6.94199ZM8.81699 12.8326H21.5576C21.5576 12.2093 21.7789 11.6768 22.2214 11.2351C22.6639 10.7936 23.1957 10.5729 23.817 10.5729V4.85166C23.1937 4.85166 22.6613 4.63041 22.2198 4.18791C21.7783 3.74541 21.5576 3.21354 21.5576 2.59229H8.81699C8.81699 3.21562 8.59574 3.74801 8.15324 4.18947C7.71074 4.63093 7.17887 4.85166 6.55762 4.85166V10.5729C7.18095 10.5729 7.71335 10.7942 8.1548 11.2367C8.59626 11.6792 8.81699 12.2111 8.81699 12.8326ZM21.9661 19.0826H2.5673C1.94585 19.0826 1.41387 18.8613 0.971367 18.4188C0.528867 17.9763 0.307617 17.4444 0.307617 16.8229V4.44322H2.18262V16.8229C2.18262 16.919 2.22262 17.0071 2.30262 17.0873C2.38283 17.1675 2.47105 17.2076 2.5673 17.2076H21.9661V19.0826ZM6.94199 12.8326H6.55762V2.59229H6.94199C6.83783 2.59229 6.74772 2.63031 6.67168 2.70635C6.59564 2.78239 6.55762 2.87249 6.55762 2.97666V12.4479C6.55762 12.5521 6.59564 12.6422 6.67168 12.7182C6.74772 12.7945 6.83783 12.8326 6.94199 12.8326Z" fill="#171717"/>
</svg>
