<svg width="20" height="20" viewBox="0 0 20 20" fill="none" xmlns="http://www.w3.org/2000/svg">
<path d="M0.5 10C0.5 8.68717 0.749667 7.45292 1.249 6.29725C1.74833 5.14142 2.42558 4.13592 3.28075 3.28075C4.13592 2.42558 5.14142 1.74833 6.29725 1.249C7.45292 0.749667 8.68717 0.5 10 0.5C12.1552 0.5 14.0539 1.133 15.6962 2.399C17.3384 3.66517 18.448 5.27767 19.025 7.2365C19.1032 7.46217 19.0993 7.683 19.0135 7.899C18.9275 8.11517 18.7749 8.254 18.5557 8.3155C18.3468 8.36667 18.1551 8.33367 17.9807 8.2165C17.8064 8.09917 17.6853 7.936 17.6173 7.727C17.2943 6.56667 16.7353 5.53425 15.9405 4.62975C15.1455 3.72525 14.1653 3.04225 13 2.58075V3C13 3.55 12.8042 4.02083 12.4125 4.4125C12.0208 4.80417 11.55 5 11 5H9V7C9 7.28333 8.90417 7.52083 8.7125 7.7125C8.52083 7.90417 8.28333 8 8 8H6V10H7.01925C7.27692 10 7.492 10.0863 7.6645 10.2587C7.83683 10.4311 7.923 10.6461 7.923 10.9038V13H7L2.2 8.2C2.15 8.5 2.10417 8.8 2.0625 9.1C2.02083 9.4 2 9.7 2 10C2 12.0718 2.69167 13.8708 4.075 15.397C5.45833 16.9233 7.19233 17.7808 9.277 17.9693C9.486 17.9897 9.65875 18.0718 9.79525 18.2155C9.93175 18.359 10 18.5372 10 18.75C10 18.9628 9.925 19.141 9.775 19.2845C9.625 19.4282 9.4455 19.4897 9.2365 19.4693C6.77633 19.2704 4.70517 18.2694 3.023 16.4663C1.341 14.6631 0.5 12.5077 0.5 10ZM18.5347 18.5885L15.7365 15.8095C15.4122 16.016 15.0628 16.1827 14.6885 16.3095C14.3142 16.4365 13.918 16.5 13.5 16.5C12.3847 16.5 11.4392 16.1122 10.6635 15.3365C9.88783 14.5608 9.5 13.6153 9.5 12.5C9.5 11.3847 9.88783 10.4392 10.6635 9.6635C11.4392 8.88783 12.3847 8.5 13.5 8.5C14.6153 8.5 15.5608 8.88783 16.3365 9.6635C17.1122 10.4392 17.5 11.3847 17.5 12.5C17.5 12.9243 17.4349 13.3253 17.3048 13.703C17.1746 14.0805 17.0031 14.4314 16.7903 14.7557L19.5885 17.5347C19.7333 17.6731 19.8057 17.8471 19.8057 18.0568C19.8057 18.2664 19.7333 18.4437 19.5885 18.5885C19.45 18.727 19.2759 18.7962 19.0663 18.7962C18.8568 18.7962 18.6796 18.727 18.5347 18.5885ZM13.5 15C14.2 15 14.7917 14.7583 15.275 14.275C15.7583 13.7917 16 13.2 16 12.5C16 11.8 15.7583 11.2083 15.275 10.725C14.7917 10.2417 14.2 10 13.5 10C12.8 10 12.2083 10.2417 11.725 10.725C11.2417 11.2083 11 11.8 11 12.5C11 13.2 11.2417 13.7917 11.725 14.275C12.2083 14.7583 12.8 15 13.5 15Z" fill="#171717"/>
</svg>
