<svg width="29" height="28" viewBox="0 0 29 28" fill="none" xmlns="http://www.w3.org/2000/svg">
<path d="M14.0003 27.4587C12.1405 27.4587 10.392 27.105 8.75476 26.3976C7.11733 25.6902 5.69287 24.7307 4.48139 23.5193C3.2699 22.3078 2.31046 20.8833 1.60308 19.2459C0.895687 17.6087 0.541992 15.8602 0.541992 14.0003C0.541992 12.1405 0.895687 10.392 1.60308 8.75476C2.31046 7.11733 3.2699 5.69287 4.48139 4.48139C5.69287 3.2699 7.11733 2.31047 8.75476 1.60308C10.392 0.895687 12.1405 0.541992 14.0003 0.541992C17.3748 0.541992 20.3071 1.62681 22.7971 3.79643C25.2874 5.96582 26.7785 8.6661 27.2706 11.8973H25.102C24.7533 10.01 23.9787 8.31949 22.7783 6.82562C21.5777 5.33174 20.0684 4.21978 18.2503 3.48972V4.08366C18.2503 4.86283 17.9729 5.52984 17.418 6.0847C16.8632 6.63956 16.1962 6.91699 15.417 6.91699H12.5837V9.75033C12.5837 10.1517 12.4479 10.4882 12.1764 10.7597C11.9048 11.0312 11.5684 11.167 11.167 11.167H8.33366V14.0003H11.0579V18.2503H9.75033L2.95033 11.4503C2.87949 11.8753 2.81456 12.3003 2.75553 12.7253C2.69651 13.1503 2.66699 13.5753 2.66699 14.0003C2.66699 17.0934 3.7531 19.7496 5.92533 21.9691C8.09755 24.1885 10.7892 25.31 14.0003 25.3337V27.4587ZM26.8375 26.9136L22.127 22.2304C21.6676 22.523 21.1727 22.7591 20.6424 22.9388C20.1121 23.1187 19.5508 23.2087 18.9587 23.2087C17.3786 23.2087 16.0391 22.6592 14.9403 21.5604C13.8414 20.4615 13.292 19.122 13.292 17.542C13.292 15.9619 13.8414 14.6225 14.9403 13.5236C16.0391 12.4248 17.3786 11.8753 18.9587 11.8753C20.5387 11.8753 21.8782 12.4248 22.977 13.5236C24.0759 14.6225 24.6253 15.9619 24.6253 17.542C24.6253 18.1431 24.5331 18.7112 24.3487 19.2462C24.1643 19.781 23.9214 20.2782 23.6198 20.7376L28.3303 25.4208L26.8375 26.9136ZM18.9587 21.0837C19.9503 21.0837 20.7885 20.7413 21.4732 20.0566C22.158 19.3719 22.5003 18.5337 22.5003 17.542C22.5003 16.5503 22.158 15.7121 21.4732 15.0274C20.7885 14.3427 19.9503 14.0003 18.9587 14.0003C17.967 14.0003 17.1288 14.3427 16.4441 15.0274C15.7594 15.7121 15.417 16.5503 15.417 17.542C15.417 18.5337 15.7594 19.3719 16.4441 20.0566C17.1288 20.7413 17.967 21.0837 18.9587 21.0837Z" fill="#271078"/>
</svg>
