<svg width="34" height="34" viewBox="0 0 34 34" fill="none" xmlns="http://www.w3.org/2000/svg">
<path d="M24.3557 30.4579C22.5868 30.4579 21.082 29.8376 19.8415 28.5971C18.601 27.3566 17.9807 25.8518 17.9807 24.0829C17.9807 22.314 18.601 20.8092 19.8415 19.5687C21.082 18.3282 22.5868 17.7079 24.3557 17.7079C26.1249 17.7079 27.6296 18.3282 28.8699 19.5687C30.1105 20.8092 30.7307 22.314 30.7307 24.0829C30.7307 25.8518 30.1105 27.3566 28.8699 28.5971C27.6296 29.8376 26.1249 30.4579 24.3557 30.4579ZM26.7152 27.3249L27.5978 26.4424L24.9826 23.8268V19.9147H23.7292V24.339L26.7152 27.3249ZM7.51935 29.0412C6.81291 29.0412 6.20941 28.7911 5.70885 28.2908C5.20853 27.7902 4.95837 27.1867 4.95837 26.4803V7.51888C4.95837 6.81244 5.20853 6.20894 5.70885 5.70838C6.20941 5.20806 6.81291 4.9579 7.51935 4.9579H13.7608C13.957 4.26775 14.358 3.69565 14.9636 3.24161C15.5692 2.78757 16.248 2.56055 17 2.56055C17.7811 2.56055 18.4708 2.78757 19.0691 3.24161C19.6676 3.69565 20.065 4.26775 20.2612 4.9579H26.4807C27.1872 4.9579 27.7907 5.20806 28.2912 5.70838C28.7915 6.20894 29.0417 6.81244 29.0417 7.51888V16.2094C28.7074 15.9934 28.3677 15.8086 28.0228 15.6552C27.6776 15.5017 27.3089 15.365 26.9167 15.245V7.51888C26.9167 7.4098 26.8713 7.30992 26.7804 7.21925C26.6897 7.12835 26.5898 7.0829 26.4807 7.0829H23.375V10.7878H10.625V7.0829H7.51935C7.41027 7.0829 7.3104 7.12835 7.21973 7.21925C7.12883 7.30992 7.08337 7.4098 7.08337 7.51888V26.4803C7.08337 26.6075 7.12422 26.712 7.20592 26.7937C7.28761 26.8754 7.39209 26.9162 7.51935 26.9162H15.6135C15.7334 27.3084 15.8724 27.6793 16.0303 28.029C16.1883 28.3787 16.3844 28.7161 16.6186 29.0412H7.51935ZM17 7.24653C17.3651 7.24653 17.6698 7.12434 17.9141 6.87996C18.1583 6.63559 18.2804 6.33089 18.2804 5.96586C18.2804 5.60083 18.1583 5.29613 17.9141 5.05176C17.6698 4.80762 17.3651 4.68555 17 4.68555C16.635 4.68555 16.3303 4.80762 16.0859 5.05176C15.8418 5.29613 15.7197 5.60083 15.7197 5.96586C15.7197 6.33089 15.8418 6.63559 16.0859 6.87996C16.3303 7.12434 16.635 7.24653 17 7.24653Z" fill="#271078"/>
</svg>
