<svg width="30" height="30" viewBox="0 0 30 30" fill="none" xmlns="http://www.w3.org/2000/svg">
<path d="M13.75 14.6154C12.5469 14.6154 11.517 14.187 10.6603 13.3304C9.80344 12.4735 9.375 11.4435 9.375 10.2404C9.375 9.03723 9.80344 8.00734 10.6603 7.15067C11.517 6.29379 12.5469 5.86536 13.75 5.86536C14.9531 5.86536 15.983 6.29379 16.8397 7.15067C17.6966 8.00734 18.125 9.03723 18.125 10.2404C18.125 11.4435 17.6966 12.4735 16.8397 13.3304C15.983 14.187 14.9531 14.6154 13.75 14.6154ZM13.75 12.7404C14.4375 12.7404 15.026 12.4956 15.5156 12.006C16.0052 11.5164 16.25 10.9279 16.25 10.2404C16.25 9.55286 16.0052 8.96431 15.5156 8.47473C15.026 7.98515 14.4375 7.74036 13.75 7.74036C13.0625 7.74036 12.474 7.98515 11.9844 8.47473C11.4948 8.96431 11.25 9.55286 11.25 10.2404C11.25 10.9279 11.4948 11.5164 11.9844 12.006C12.474 12.4956 13.0625 12.7404 13.75 12.7404ZM27.0722 28.3894L23.4088 24.726C22.9873 24.992 22.5425 25.2004 22.0744 25.351C21.6065 25.5016 21.1242 25.5769 20.6275 25.5769C19.2477 25.5769 18.077 25.0953 17.1153 24.1319C16.1539 23.1684 15.6731 21.9985 15.6731 20.6222C15.6731 19.246 16.1548 18.077 17.1181 17.1154C18.0817 16.1539 19.2516 15.6732 20.6278 15.6732C22.0041 15.6732 23.173 16.1546 24.1347 17.1175C25.0961 18.0805 25.5769 19.2496 25.5769 20.625C25.5769 21.1234 25.5016 21.6065 25.3509 22.0744C25.2003 22.5425 24.992 22.9873 24.7259 23.4088L28.3894 27.0722L27.0722 28.3894ZM20.625 23.7019C21.4921 23.7019 22.2217 23.4059 22.8137 22.8138C23.4058 22.2217 23.7019 21.4921 23.7019 20.625C23.7019 19.758 23.4058 19.0284 22.8137 18.4363C22.2217 17.8442 21.4921 17.5482 20.625 17.5482C19.7579 17.5482 19.0283 17.8442 18.4363 18.4363C17.8442 19.0284 17.5481 19.758 17.5481 20.625C17.5481 21.4921 17.8442 22.2217 18.4363 22.8138C19.0283 23.4059 19.7579 23.7019 20.625 23.7019ZM4.375 24.1347V21.375C4.375 20.7548 4.53813 20.1847 4.86438 19.6647C5.19042 19.1447 5.63792 18.7405 6.20687 18.4519C7.18917 17.9584 8.37302 17.5201 9.75844 17.1372C11.1439 16.7541 12.661 16.5946 14.31 16.6588C14.1242 16.9536 13.9628 17.2571 13.8259 17.5694C13.6893 17.8819 13.5806 18.2058 13.5 18.541C12.1298 18.557 10.883 18.7385 9.75969 19.0854C8.63635 19.4322 7.74531 19.7788 7.08656 20.125C6.82219 20.2532 6.61667 20.4289 6.47 20.6522C6.32333 20.8756 6.25 21.1165 6.25 21.375V22.2597H13.3559C13.428 22.5897 13.5266 22.913 13.6516 23.2294C13.7766 23.5461 13.924 23.8479 14.0938 24.1347H4.375Z" fill="#171717"/>
</svg>
