<svg width="20" height="20" viewBox="0 0 20 20" fill="none" xmlns="http://www.w3.org/2000/svg">
<path d="M18.0603 19.2084C16.0187 19.2084 13.9677 18.7337 11.9072 17.7844C9.84688 16.835 7.95213 15.4958 6.22295 13.7668C4.50081 12.0377 3.16506 10.1445 2.2157 8.08746C1.26634 6.03057 0.791656 3.98135 0.791656 1.93981C0.791656 1.61481 0.89999 1.34217 1.11666 1.12189C1.33332 0.901797 1.60416 0.791748 1.92916 0.791748H5.46245C5.73599 0.791748 5.9773 0.881033 6.18639 1.0596C6.39547 1.23799 6.52845 1.45845 6.58532 1.72098L7.20634 4.90841C7.24932 5.20416 7.24029 5.4583 7.17926 5.67081C7.11805 5.88332 7.00827 6.0618 6.84993 6.20625L4.34797 8.64185C4.75061 9.37924 5.21066 10.0768 5.72814 10.7346C6.24543 11.3922 6.80551 12.0202 7.40839 12.6188C8.00277 13.2133 8.63472 13.7655 9.30422 14.2752C9.97372 14.7849 10.6967 15.2592 11.4731 15.6981L13.9041 13.246C14.0736 13.0696 14.2789 12.9459 14.5199 12.875C14.7608 12.8042 15.0111 12.7869 15.2709 12.823L18.2791 13.4356C18.5526 13.5078 18.7759 13.6474 18.9489 13.8543C19.1218 14.0612 19.2083 14.2959 19.2083 14.5585V18.0709C19.2083 18.3959 19.0983 18.6667 18.8782 18.8834C18.6579 19.1001 18.3853 19.2084 18.0603 19.2084Z" fill="#6D6D6D"/>
</svg>
