<svg width="24" height="24" viewBox="0 0 24 24" fill="none" xmlns="http://www.w3.org/2000/svg">
<path d="M9.37532 16.7117L16.7119 12.0001L9.37532 7.2885V16.7117ZM12.0024 23.0834C10.4694 23.0834 9.02843 22.7925 7.67957 22.2107C6.33071 21.629 5.15744 20.8394 4.15974 19.8421C3.16205 18.8448 2.37212 17.672 1.78995 16.3237C1.20798 14.9755 0.916992 13.5349 0.916992 12.0021C0.916992 10.4691 1.20788 9.02819 1.78966 7.67933C2.37144 6.33047 3.16098 5.15719 4.15828 4.1595C5.15559 3.1618 6.32838 2.37187 7.67666 1.78971C9.02494 1.20773 10.4655 0.916748 11.9983 0.916748C13.5313 0.916748 14.9722 1.20764 16.3211 1.78941C17.6699 2.37119 18.8432 3.16073 19.8409 4.15804C20.8386 5.15534 21.6285 6.32814 22.2107 7.67641C22.7927 9.02469 23.0837 10.4652 23.0837 11.998C23.0837 13.531 22.7928 14.972 22.211 16.3208C21.6292 17.6697 20.8397 18.843 19.8424 19.8407C18.8451 20.8384 17.6723 21.6283 16.324 22.2105C14.9757 22.7924 13.5352 23.0834 12.0024 23.0834ZM12.0003 21.3334C14.6059 21.3334 16.8128 20.4292 18.6212 18.6209C20.4295 16.8126 21.3337 14.6056 21.3337 12.0001C21.3337 9.39452 20.4295 7.18758 18.6212 5.37925C16.8128 3.57091 14.6059 2.66675 12.0003 2.66675C9.39477 2.66675 7.18782 3.57091 5.37949 5.37925C3.57116 7.18758 2.66699 9.39452 2.66699 12.0001C2.66699 14.6056 3.57116 16.8126 5.37949 18.6209C7.18782 20.4292 9.39477 21.3334 12.0003 21.3334Z" fill="#171717"/>
</svg>
