<svg width="30" height="30" viewBox="0 0 30 30" fill="none" xmlns="http://www.w3.org/2000/svg">
<rect width="30" height="30" rx="15" fill="#E1F8E1"/>
<mask id="path-2-inside-1_289_2421" fill="white">
<path d="M14.25 15.75H8.5V14.25H14.25V8.5H15.75V14.25H21.5V15.75H15.75V21.5H14.25V15.75Z"/>
</mask>
<path d="M14.25 15.75H8.5V14.25H14.25V8.5H15.75V14.25H21.5V15.75H15.75V21.5H14.25V15.75Z" fill="#008000"/>
<path d="M14.25 15.75H20.25V9.75H14.25V15.75ZM8.5 15.75H2.5V21.75H8.5V15.75ZM8.5 14.25V8.25H2.5V14.25H8.5ZM14.25 14.25V20.25H20.25V14.25H14.25ZM14.25 8.5V2.5H8.25V8.5H14.25ZM15.75 8.5H21.75V2.5H15.75V8.5ZM15.75 14.25H9.75V20.25H15.75V14.25ZM21.5 14.25H27.5V8.25H21.5V14.25ZM21.5 15.75V21.75H27.5V15.75H21.5ZM15.75 15.75V9.75H9.75V15.75H15.75ZM15.75 21.5V27.5H21.75V21.5H15.75ZM14.25 21.5H8.25V27.5H14.25V21.5ZM14.25 9.75H8.5V21.75H14.25V9.75ZM14.5 15.75V14.25H2.5V15.75H14.5ZM8.5 20.25H14.25V8.25H8.5V20.25ZM20.25 14.25V8.5H8.25V14.25H20.25ZM14.25 14.5H15.75V2.5H14.25V14.5ZM9.75 8.5V14.25H21.75V8.5H9.75ZM15.75 20.25H21.5V8.25H15.75V20.25ZM15.5 14.25V15.75H27.5V14.25H15.5ZM21.5 9.75H15.75V21.75H21.5V9.75ZM9.75 15.75V21.5H21.75V15.75H9.75ZM15.75 15.5H14.25V27.5H15.75V15.5ZM20.25 21.5V15.75H8.25V21.5H20.25Z" fill="#008000" mask="url(#path-2-inside-1_289_2421)"/>
</svg>
