<svg width="57" height="56" viewBox="0 0 57 56" fill="none" xmlns="http://www.w3.org/2000/svg">
<rect y="0.651733" width="57" height="54.6964" rx="10" fill="#FFD9D9"/>
<path d="M28.5 35.1234C28.8372 35.1234 29.1199 35.0093 29.3481 34.7811C29.5763 34.5529 29.6904 34.2702 29.6904 33.933C29.6904 33.5958 29.5763 33.3131 29.3481 33.0849C29.1199 32.857 28.8372 32.743 28.5 32.743C28.1628 32.743 27.8801 32.857 27.6519 33.0849C27.4237 33.3131 27.3096 33.5958 27.3096 33.933C27.3096 34.2702 27.4237 34.5529 27.6519 34.7811C27.8801 35.0093 28.1628 35.1234 28.5 35.1234ZM27.3947 29.7389H29.6053V20.8968H27.3947V29.7389ZM28.5026 42.1517C26.5662 42.1517 24.746 41.7843 23.0422 41.0494C21.3384 40.3145 19.8564 39.3172 18.5961 38.0575C17.3359 36.7977 16.3381 35.3163 15.6027 33.6132C14.8676 31.9101 14.5 30.0905 14.5 28.1543C14.5 26.2179 14.8674 24.3978 15.6023 22.6939C16.3372 20.9901 17.3345 19.5081 18.5943 18.2478C19.854 16.9876 21.3354 15.9898 23.0385 15.2544C24.7416 14.5193 26.5612 14.1517 28.4974 14.1517C30.4338 14.1517 32.254 14.5192 33.9578 15.254C35.6616 15.9889 37.1436 16.9862 38.4039 18.246C39.6641 19.5058 40.6619 20.9872 41.3973 22.6903C42.1324 24.3933 42.5 26.213 42.5 28.1492C42.5 30.0856 42.1326 31.9057 41.3977 33.6095C40.6628 35.3133 39.6655 36.7954 38.4057 38.0556C37.146 39.3159 35.6646 40.3137 33.9615 41.049C32.2584 41.7842 30.4388 42.1517 28.5026 42.1517ZM28.5 39.9412C31.7912 39.9412 34.5789 38.7991 36.8632 36.5149C39.1474 34.2307 40.2895 31.443 40.2895 28.1517C40.2895 24.8605 39.1474 22.0728 36.8632 19.7886C34.5789 17.5044 31.7912 16.3623 28.5 16.3623C25.2088 16.3623 22.4211 17.5044 20.1368 19.7886C17.8526 22.0728 16.7105 24.8605 16.7105 28.1517C16.7105 31.443 17.8526 34.2307 20.1368 36.5149C22.4211 38.7991 25.2088 39.9412 28.5 39.9412Z" fill="#FF0000"/>
</svg>
