<svg width="18" height="20" viewBox="0 0 18 20" fill="none" xmlns="http://www.w3.org/2000/svg">
<path d="M8.25 17.5691V10.4306L2 6.81135V13.7769C2 13.828 2.01283 13.8761 2.0385 13.9211C2.06417 13.9659 2.10258 14.0044 2.15375 14.0364L8.25 17.5691ZM9.75 17.5691L15.8462 14.0364C15.8974 14.0044 15.9358 13.9659 15.9615 13.9211C15.9872 13.8761 16 13.828 16 13.7769V6.81135L9.75 10.4306V17.5691ZM8.09625 19.2056L1.404 15.3536C1.11933 15.1896 0.8975 14.9704 0.7385 14.6961C0.5795 14.4216 0.5 14.1203 0.5 13.7921V6.2076C0.5 5.87944 0.5795 5.5781 0.7385 5.3036C0.8975 5.02927 1.11933 4.8101 1.404 4.6461L8.09625 0.794102C8.38075 0.629936 8.682 0.547852 9 0.547852C9.318 0.547852 9.61925 0.629936 9.90375 0.794102L16.596 4.6461C16.8807 4.8101 17.1025 5.02927 17.2615 5.3036C17.4205 5.5781 17.5 5.87944 17.5 6.2076V13.7921C17.5 14.1203 17.4205 14.4216 17.2615 14.6961C17.1025 14.9704 16.8807 15.1896 16.596 15.3536L9.90375 19.2056C9.61925 19.3698 9.318 19.4519 9 19.4519C8.682 19.4519 8.38075 19.3698 8.09625 19.2056ZM12.8558 6.89985L15.175 5.5691L9.15375 2.08635C9.10258 2.05435 9.05133 2.03835 9 2.03835C8.94867 2.03835 8.89742 2.05435 8.84625 2.08635L6.675 3.33635L12.8558 6.89985ZM9 9.13835L11.325 7.7921L5.15 4.22285L2.825 5.5691L9 9.13835Z" fill="#171717"/>
</svg>
