<svg width="20" height="20" viewBox="0 0 20 20" fill="none" xmlns="http://www.w3.org/2000/svg">
<path d="M4.023 15.1709C4.873 14.5402 5.799 14.0422 6.801 13.6767C7.80283 13.3113 8.86917 13.1287 10 13.1287C11.1308 13.1287 12.1972 13.3113 13.199 13.6767C14.201 14.0422 15.127 14.5402 15.977 15.1709C16.5987 14.4876 17.0912 13.6966 17.4548 12.7979C17.8183 11.8992 18 10.9262 18 9.87866C18 7.662 17.2208 5.7745 15.6625 4.21616C14.1042 2.65783 12.2167 1.87866 10 1.87866C7.78333 1.87866 5.89583 2.65783 4.3375 4.21616C2.77917 5.7745 2 7.662 2 9.87866C2 10.9262 2.18175 11.8992 2.54525 12.7979C2.90875 13.6966 3.40133 14.4876 4.023 15.1709ZM10.0003 10.6287C9.08725 10.6287 8.31733 10.3153 7.6905 9.68866C7.0635 9.06183 6.75 8.29191 6.75 7.37891C6.75 6.46591 7.06333 5.696 7.69 5.06916C8.31683 4.44216 9.08675 4.12866 9.99975 4.12866C10.9128 4.12866 11.6827 4.44199 12.3095 5.06866C12.9365 5.6955 13.25 6.46541 13.25 7.37841C13.25 8.29141 12.9367 9.06133 12.31 9.68816C11.6832 10.3152 10.9132 10.6287 10.0003 10.6287ZM10 19.3787C8.68083 19.3787 7.44333 19.1306 6.2875 18.6344C5.13167 18.1382 4.12625 17.4626 3.27125 16.6074C2.41608 15.7524 1.74042 14.747 1.24425 13.5912C0.748083 12.4353 0.5 11.1978 0.5 9.87866C0.5 8.5595 0.748083 7.322 1.24425 6.16616C1.74042 5.01033 2.41608 4.00491 3.27125 3.14991C4.12625 2.29474 5.13167 1.61908 6.2875 1.12291C7.44333 0.626746 8.68083 0.378662 10 0.378662C11.3192 0.378662 12.5567 0.626746 13.7125 1.12291C14.8683 1.61908 15.8738 2.29474 16.7288 3.14991C17.5839 4.00491 18.2596 5.01033 18.7558 6.16616C19.2519 7.322 19.5 8.5595 19.5 9.87866C19.5 11.1978 19.2519 12.4353 18.7558 13.5912C18.2596 14.747 17.5839 15.7524 16.7288 16.6074C15.8738 17.4626 14.8683 18.1382 13.7125 18.6344C12.5567 19.1306 11.3192 19.3787 10 19.3787ZM10 17.8787C10.9025 17.8787 11.7727 17.7335 12.6105 17.4432C13.4483 17.1527 14.1923 16.7466 14.8422 16.2249C14.1923 15.7222 13.458 15.3306 12.6395 15.0499C11.8208 14.7691 10.941 14.6287 10 14.6287C9.059 14.6287 8.17758 14.7674 7.35575 15.0449C6.53392 15.3226 5.80125 15.7159 5.15775 16.2249C5.80775 16.7466 6.55167 17.1527 7.3895 17.4432C8.22733 17.7335 9.0975 17.8787 10 17.8787ZM10 9.12866C10.4975 9.12866 10.9135 8.96133 11.248 8.62666C11.5827 8.29216 11.75 7.87616 11.75 7.37866C11.75 6.88116 11.5827 6.46516 11.248 6.13066C10.9135 5.796 10.4975 5.62866 10 5.62866C9.5025 5.62866 9.0865 5.796 8.752 6.13066C8.41733 6.46516 8.25 6.88116 8.25 7.37866C8.25 7.87616 8.41733 8.29216 8.752 8.62666C9.0865 8.96133 9.5025 9.12866 10 9.12866Z" fill="#5F6368"/>
</svg>
