<svg width="20" height="18" viewBox="0 0 20 18" fill="none" xmlns="http://www.w3.org/2000/svg">
<path d="M2.30775 17.5C1.80258 17.5 1.375 17.325 1.025 16.975C0.675 16.625 0.5 16.1974 0.5 15.6923V2.30775C0.5 1.80258 0.675 1.375 1.025 1.025C1.375 0.675 1.80258 0.5 2.30775 0.5H17.6923C18.1974 0.5 18.625 0.675 18.975 1.025C19.325 1.375 19.5 1.80258 19.5 2.30775V15.6923C19.5 16.1974 19.325 16.625 18.975 16.975C18.625 17.325 18.1974 17.5 17.6923 17.5H2.30775ZM2.30775 16H17.6923C17.7693 16 17.8398 15.9679 17.9038 15.9038C17.9679 15.8398 18 15.7692 18 15.6923V2.30775C18 2.23075 17.9679 2.16025 17.9038 2.09625C17.8398 2.03208 17.7693 2 17.6923 2H2.30775C2.23075 2 2.16025 2.03208 2.09625 2.09625C2.03208 2.16025 2 2.23075 2 2.30775V15.6923C2 15.7692 2.03208 15.8398 2.09625 15.9038C2.16025 15.9679 2.23075 16 2.30775 16ZM3.25 13.75H7.75V12.25H3.25V13.75ZM12.55 11.6442L17.1443 7.05L16.075 5.98075L12.55 9.53075L11.125 8.10575L10.0808 9.175L12.55 11.6442ZM3.25 9.75H7.75V8.25H3.25V9.75ZM3.25 5.75H7.75V4.25H3.25V5.75Z" fill="#171717"/>
</svg>
