<svg width="30" height="30" viewBox="0 0 30 30" fill="none" xmlns="http://www.w3.org/2000/svg">
<path d="M15 5V3.125H26.875V5H15ZM15 9.61531V7.74031H26.875V9.61531H15ZM15 14.2306V12.3556H26.875V14.2306H15ZM23.0503 26.875C20.6947 26.875 18.3281 26.3273 15.9506 25.2319C13.5733 24.1365 11.3891 22.5912 9.39781 20.5962C7.40677 18.601 5.86354 16.4167 4.76813 14.0431C3.67271 11.6698 3.125 9.30531 3.125 6.94969C3.125 6.57115 3.25 6.25573 3.5 6.00344C3.75 5.75115 4.0625 5.625 4.4375 5.625H8.51437C8.83 5.625 9.10844 5.72802 9.34969 5.93406C9.59094 6.1399 9.74438 6.39427 9.81 6.69719L10.5266 10.375C10.5761 10.7162 10.5657 11.0095 10.4953 11.2547C10.4247 11.4999 10.298 11.7058 10.1153 11.8725L7.22844 14.6828C7.69302 15.5336 8.22385 16.3385 8.82094 17.0975C9.41781 17.8562 10.0641 18.5809 10.7597 19.2716C11.4455 19.9576 12.1747 20.5947 12.9472 21.1828C13.7197 21.7709 14.5539 22.3182 15.4497 22.8247L18.2547 19.9953C18.4503 19.7918 18.6872 19.6491 18.9653 19.5672C19.2432 19.4855 19.5321 19.4655 19.8319 19.5072L23.3028 20.2141C23.6184 20.2974 23.876 20.4584 24.0756 20.6972C24.2752 20.9359 24.375 21.2068 24.375 21.5097V25.5625C24.375 25.9375 24.2489 26.25 23.9966 26.5C23.7443 26.75 23.4289 26.875 23.0503 26.875ZM6.34125 12.9088L8.57219 10.7741C8.61219 10.742 8.63823 10.6979 8.65031 10.6419C8.6624 10.5858 8.66042 10.5337 8.64437 10.4856L8.10094 7.69219C8.0849 7.62823 8.05688 7.58021 8.01688 7.54812C7.97688 7.51604 7.92479 7.5 7.86062 7.5H5.1875C5.13937 7.5 5.09927 7.51604 5.06719 7.54812C5.03531 7.58021 5.01937 7.62031 5.01937 7.66844C5.08333 8.5226 5.22312 9.39031 5.43875 10.2716C5.65417 11.153 5.955 12.0321 6.34125 12.9088ZM17.2162 23.7116C18.0448 24.0978 18.909 24.3931 19.8088 24.5975C20.7087 24.8017 21.5497 24.923 22.3316 24.9616C22.3797 24.9616 22.4198 24.9455 22.4519 24.9134C22.484 24.8814 22.5 24.8412 22.5 24.7931V22.1634C22.5 22.0993 22.484 22.0472 22.4519 22.0072C22.4198 21.9672 22.3718 21.9392 22.3078 21.9231L19.6828 21.3894C19.6347 21.3733 19.5926 21.3714 19.5566 21.3834C19.5205 21.3955 19.4824 21.4216 19.4422 21.4616L17.2162 23.7116Z" fill="#271078"/>
</svg>
