<svg width="54" height="54" viewBox="0 0 54 54" fill="none" xmlns="http://www.w3.org/2000/svg">
<rect width="54" height="54" rx="10" fill="#E3F3FF"/>
<path d="M18.626 40.375V34.7001C17.2885 33.48 16.2502 32.0816 15.5111 30.505C14.7719 28.9281 14.4023 27.2872 14.4023 25.5822C14.4023 22.2608 15.5659 19.4376 17.8929 17.1127C20.2196 14.7876 23.0452 13.625 26.3695 13.625C29.1041 13.625 31.5493 14.4423 33.7053 16.0768C35.8615 17.7112 37.2618 19.8316 37.9061 22.4381L39.5509 28.9348C39.6565 29.3363 39.582 29.7008 39.3274 30.0284C39.073 30.356 38.7337 30.5197 38.3095 30.5197H35.5208V35.0141C35.5208 35.714 35.2716 36.3132 34.7732 36.8116C34.2748 37.31 33.6756 37.5592 32.9756 37.5592H29.8892V40.375H27.7773V35.4474H32.9756C33.1021 35.4474 33.206 35.4068 33.2871 35.3256C33.3683 35.2444 33.4089 35.1406 33.4089 35.0141V28.4079H37.2102L35.8727 22.9523C35.3331 20.8081 34.1788 19.0694 32.41 17.7364C30.641 16.4034 28.6275 15.7368 26.3695 15.7368C23.6475 15.7368 21.3245 16.6885 19.4004 18.5917C17.4762 20.4949 16.5142 22.8094 16.5142 25.5351C16.5142 26.9409 16.8016 28.2763 17.3765 29.5413C17.9514 30.8062 18.7668 31.9307 19.8227 32.9146L20.7379 33.7579V40.375H18.626ZM25.2731 30.9259H27.4658L27.6228 29.3962C27.9009 29.3258 28.1614 29.2234 28.4042 29.089C28.6468 28.9543 28.8539 28.7877 29.0254 28.5892L30.401 29.2255L31.4974 27.3601L30.2792 26.453C30.3801 26.1661 30.4305 25.8791 30.4305 25.5921C30.4305 25.3051 30.3801 25.0182 30.2792 24.7312L31.4974 23.8241L30.401 21.9587L29.0254 22.595C28.8539 22.3965 28.6468 22.2299 28.4042 22.0952C28.1614 21.9608 27.9009 21.8584 27.6228 21.788L27.4658 20.2583H25.2731L25.1161 21.788C24.838 21.8584 24.5776 21.9608 24.3347 22.0952C24.0921 22.2299 23.885 22.3965 23.7135 22.595L22.3379 21.9587L21.2415 23.8241L22.4597 24.7312C22.3588 25.0182 22.3084 25.3051 22.3084 25.5921C22.3084 25.8791 22.3588 26.1661 22.4597 26.453L21.2415 27.3601L22.3379 29.2255L23.7135 28.5892C23.885 28.7877 24.0921 28.9543 24.3347 29.089C24.5776 29.2234 24.838 29.3258 25.1161 29.3962L25.2731 30.9259ZM26.3687 27.9612C25.7103 27.9612 25.151 27.7308 24.6909 27.27C24.2305 26.8091 24.0003 26.2496 24.0003 25.5914C24.0003 24.933 24.2307 24.3737 24.6916 23.9135C25.1524 23.4532 25.712 23.223 26.3702 23.223C27.0286 23.223 27.5879 23.4534 28.048 23.9142C28.5084 24.3751 28.7386 24.9346 28.7386 25.5928C28.7386 26.2512 28.5082 26.8105 28.0473 27.2707C27.5865 27.7311 27.0269 27.9612 26.3687 27.9612Z" fill="#2196F3"/>
</svg>
