<svg width="33" height="32" viewBox="0 0 33 32" fill="none" xmlns="http://www.w3.org/2000/svg">
<rect x="0.728027" width="32" height="32" rx="16" fill="#EAEAEA"/>
<path d="M23.2139 23.4668L17.3686 17.6214C16.9033 18.0056 16.3681 18.3063 15.7632 18.5234C15.1583 18.7406 14.5325 18.8491 13.8858 18.8491C12.2952 18.8491 10.949 18.2984 9.84721 17.197C8.74546 16.0956 8.19458 14.7497 8.19458 13.1594C8.19458 11.5692 8.7453 10.2228 9.84674 9.12033C10.9482 8.01798 12.2941 7.4668 13.8844 7.4668C15.4746 7.4668 16.821 8.01766 17.9235 9.1194C19.0259 10.2211 19.5771 11.5673 19.5771 13.158C19.5771 13.8226 19.4656 14.4574 19.2425 15.0623C19.0193 15.6672 18.7216 16.1934 18.3493 16.6407L24.1946 22.4859L23.2139 23.4668ZM13.8858 17.4534C15.085 17.4534 16.1007 17.0372 16.9328 16.2049C17.7652 15.3728 18.1813 14.3571 18.1813 13.158C18.1813 11.9588 17.7652 10.9432 16.9328 10.111C16.1007 9.2787 15.085 8.86254 13.8858 8.86254C12.6867 8.86254 11.671 9.2787 10.8388 10.111C10.0065 10.9432 9.59035 11.9588 9.59035 13.158C9.59035 14.3571 10.0065 15.3728 10.8388 16.2049C11.671 17.0372 12.6867 17.4534 13.8858 17.4534Z" fill="#8B8B8B"/>
</svg>
