<svg width="20" height="15" viewBox="0 0 20 15" fill="none" xmlns="http://www.w3.org/2000/svg">
<path d="M12.1829 1.86523V0.365479H19.6829V1.86523H12.1829ZM12.1829 5.74998V4.24998H19.6829V5.74998H12.1829ZM12.1829 9.63448V8.13473H19.6829V9.63448H12.1829ZM5.93513 8.80773C5.2093 8.80773 4.59155 8.55365 4.08188 8.04548C3.57222 7.53731 3.31738 6.92031 3.31738 6.19448C3.31738 5.46865 3.57147 4.85098 4.07963 4.34148C4.5878 3.83181 5.2048 3.57698 5.93063 3.57698C6.65647 3.57698 7.27422 3.83098 7.78388 4.33898C8.29338 4.84715 8.54813 5.46414 8.54813 6.18998C8.54813 6.91581 8.29413 7.53356 7.78613 8.04323C7.27797 8.5529 6.66097 8.80773 5.93513 8.80773ZM0.317383 14.423V12.9077C0.317383 12.6239 0.386299 12.3536 0.524133 12.0967C0.661966 11.8399 0.852049 11.6359 1.09438 11.4847C1.81872 11.0602 2.58313 10.7387 3.38763 10.5202C4.1923 10.3016 5.04072 10.1922 5.93288 10.1922C6.82505 10.1922 7.67338 10.3016 8.47788 10.5202C9.28238 10.7387 10.0469 11.0602 10.7714 11.4847C11.0135 11.6359 11.2036 11.8399 11.3414 12.0967C11.4792 12.3536 11.5481 12.6239 11.5481 12.9077V14.423H0.317383ZM1.90963 12.7692V12.923H9.95588V12.7692C9.33405 12.4166 8.68372 12.1489 8.00488 11.9662C7.32605 11.7836 6.63538 11.6922 5.93288 11.6922C5.23022 11.6922 4.53947 11.7836 3.86063 11.9662C3.1818 12.1489 2.53147 12.4166 1.90963 12.7692ZM5.93288 7.30773C6.24188 7.30773 6.50497 7.19906 6.72213 6.98173C6.93947 6.7644 7.04813 6.50123 7.04813 6.19223C7.04813 5.88323 6.93947 5.62015 6.72213 5.40298C6.50497 5.18565 6.24188 5.07698 5.93288 5.07698C5.62388 5.07698 5.36072 5.18565 5.14338 5.40298C4.92605 5.62015 4.81738 5.88323 4.81738 6.19223C4.81738 6.50123 4.92605 6.7644 5.14338 6.98173C5.36072 7.19906 5.62388 7.30773 5.93288 7.30773Z" fill="#171717"/>
</svg>
