<svg width="30" height="20" viewBox="0 0 30 20" fill="none" xmlns="http://www.w3.org/2000/svg">
<path d="M0.125 19.2437V13.2229H2.25V17.1187H27.75V13.2229H29.875V19.2437H0.125ZM11.747 14.2365V12.9232H11.6273C11.3114 13.45 10.8959 13.8536 10.381 14.1341C9.866 14.4149 9.27348 14.5552 8.6034 14.5552C7.51894 14.5552 6.66209 14.2678 6.03285 13.6928C5.40338 13.1179 5.08865 12.3383 5.08865 11.3539C5.08865 10.3622 5.45651 9.55581 6.19223 8.9346C6.92772 8.31363 7.87936 8.00314 9.04717 8.00314C9.56307 8.00314 10.0535 8.04895 10.5184 8.14056C10.9833 8.23241 11.3856 8.37278 11.7254 8.56166V7.92948C11.7254 7.15574 11.5047 6.55732 11.0634 6.1342C10.6219 5.71086 9.99622 5.49918 9.18635 5.49918C8.69052 5.49918 8.22644 5.5941 7.79413 5.78394C7.36181 5.97377 6.9649 6.2558 6.60342 6.63004L5.4074 5.67379C5.8834 5.11798 6.432 4.70207 7.05321 4.42606C7.67418 4.14981 8.38794 4.01168 9.1945 4.01168C10.5857 4.01168 11.6368 4.35546 12.348 5.04302C13.0589 5.73034 13.4144 6.73971 13.4144 8.07114V14.2365H11.747ZM9.35529 9.38156C8.55417 9.38156 7.93024 9.55404 7.48352 9.899C7.0368 10.2442 6.81344 10.7247 6.81344 11.3405C6.81344 11.8762 6.99725 12.3052 7.36488 12.6275C7.73274 12.95 8.21358 13.1113 8.8074 13.1113C9.63567 13.1113 10.3291 12.8093 10.8878 12.2053C11.4462 11.6014 11.7254 10.8535 11.7254 9.96169C11.4038 9.7728 11.026 9.62889 10.592 9.52996C10.1578 9.43103 9.74558 9.38156 9.35529 9.38156ZM15.9754 14.2499V0.0478516H17.708V4.41791L17.6017 5.83458H17.6945C17.8742 5.5529 18.2188 5.21089 18.7283 4.80856C19.2378 4.40646 19.9466 4.20541 20.8547 4.20541C22.2296 4.20541 23.322 4.7075 24.1318 5.71168C24.9419 6.7161 25.347 7.95391 25.347 9.42512C25.347 10.8781 24.9478 12.0986 24.1495 13.0865C23.3515 14.0746 22.2486 14.5687 20.8409 14.5687C19.9819 14.5687 19.2918 14.3835 18.7705 14.013C18.2491 13.6425 17.8905 13.2847 17.6945 12.9395H17.6017V14.2499H15.9754ZM20.6313 5.82077C19.705 5.82077 18.9684 6.17812 18.4216 6.89283C17.875 7.60754 17.6017 8.44432 17.6017 9.40316C17.6017 10.3769 17.875 11.2151 18.4216 11.9177C18.9684 12.6207 19.705 12.9721 20.6313 12.9721C21.5575 12.9721 22.2818 12.6275 22.8041 11.9383C23.3261 11.2491 23.5871 10.404 23.5871 9.40316C23.5871 8.40252 23.3261 7.55524 22.8041 6.86131C22.2818 6.16762 21.5575 5.82077 20.6313 5.82077Z" fill="#171717"/>
</svg>
