<svg width="26" height="24" viewBox="0 0 26 24" fill="none" xmlns="http://www.w3.org/2000/svg">
<path d="M12.8749 23.823L18.4421 9.44802H20.394L25.9615 23.823H23.9734L22.5577 20.0105H16.2787L14.8627 23.823H12.8749ZM3.0118 20.1452L1.69461 18.8277L7.91086 12.5996C7.18982 11.8704 6.5044 11.005 5.85461 10.0033C5.20461 9.00166 4.66971 7.98323 4.24992 6.94802H6.23773C6.59836 7.70448 7.03711 8.46093 7.55398 9.21739C8.07086 9.97364 8.62898 10.6619 9.22836 11.2821C10.1161 10.3862 10.9558 9.29854 11.7474 8.01896C12.5391 6.73937 13.0985 5.54906 13.4255 4.44802H0.115234V2.57302H8.31242V0.553955H10.1874V2.57302H18.3846V4.44802H15.3243C14.9189 5.85177 14.2727 7.31927 13.3859 8.85052C12.4988 10.3818 11.552 11.6443 10.5455 12.638L13.6296 15.7965L12.9205 17.7221L9.22836 13.9358L3.0118 20.1452ZM16.8796 18.3518H21.9565L19.418 11.5321L16.8796 18.3518Z" fill="#171717"/>
</svg>
