<svg width="16" height="16" viewBox="0 0 16 16" fill="none" xmlns="http://www.w3.org/2000/svg">
<path d="M7.25 11.7885V3.3885L4.78475 5.85375L3.73075 4.76925L8 0.5L12.2693 4.76925L11.2153 5.85375L8.75 3.3885V11.7885H7.25ZM2.30775 15.5C1.80258 15.5 1.375 15.325 1.025 14.975C0.675 14.625 0.5 14.1974 0.5 13.6923V10.9808H2V13.6923C2 13.7692 2.03208 13.8398 2.09625 13.9038C2.16025 13.9679 2.23075 14 2.30775 14H13.6923C13.7692 14 13.8398 13.9679 13.9038 13.9038C13.9679 13.8398 14 13.7692 14 13.6923V10.9808H15.5V13.6923C15.5 14.1974 15.325 14.625 14.975 14.975C14.625 15.325 14.1974 15.5 13.6923 15.5H2.30775Z" fill="#5F6368"/>
</svg>
