<svg width="16" height="16" viewBox="0 0 16 16" fill="none" xmlns="http://www.w3.org/2000/svg">
  <path d="M8 7.69225C7.0375 7.69225 6.21358 7.34958 5.52825 6.66425C4.84275 5.97875 4.5 5.15475 4.5 4.19225C4.5 3.22975 4.84275 2.40583 5.52825 1.7205C6.21358 1.035 7.0375 0.692245 8 0.692245C8.9625 0.692245 9.78642 1.035 10.4718 1.7205C11.1573 2.40583 11.5 3.22975 11.5 4.19225C11.5 5.15475 11.1573 5.97875 10.4718 6.66425C9.78642 7.34958 8.9625 7.69225 8 7.69225ZM0.5 15.3077V13.0845C0.5 12.5948 0.633 12.1413 0.899 11.724C1.165 11.3067 1.5205 10.9858 1.9655 10.7615C2.95383 10.277 3.95092 9.91358 4.95675 9.67125C5.96258 9.42891 6.977 9.30775 8 9.30775C9.023 9.30775 10.0374 9.42891 11.0433 9.67125C12.0491 9.91358 13.0462 10.277 14.0345 10.7615C14.4795 10.9858 14.835 11.3067 15.101 11.724C15.367 12.1413 15.5 12.5948 15.5 13.0845V15.3077H0.5Z" fill="#FFFFFF"/>
</svg>
