<svg width="30" height="30" viewBox="0 0 30 30" fill="none" xmlns="http://www.w3.org/2000/svg">
<path d="M19.7164 15L13.5 8.78362L11.9336 10.3875L16.5461 15L11.9336 19.6125L13.5 21.2164L19.7164 15ZM29.25 14.9974C29.25 16.9684 28.876 18.821 28.128 20.5553C27.38 22.2895 26.3649 23.798 25.0826 25.0807C23.8004 26.3635 22.2925 27.3791 20.559 28.1276C18.8255 28.8759 16.9734 29.25 15.0026 29.25C13.0316 29.25 11.179 28.876 9.44475 28.128C7.7105 27.38 6.202 26.3649 4.91925 25.0826C3.6365 23.8004 2.62087 22.2925 1.87237 20.559C1.12412 18.8255 0.75 16.9734 0.75 15.0026C0.75 13.0316 1.124 11.179 1.872 9.44475C2.62 7.7105 3.63513 6.202 4.91738 4.91925C6.19963 3.6365 7.7075 2.62087 9.441 1.87237C11.1745 1.12412 13.0266 0.749998 14.9974 0.749998C16.9684 0.749998 18.821 1.124 20.5553 1.872C22.2895 2.62 23.798 3.63512 25.0808 4.91737C26.3635 6.19963 27.3791 7.7075 28.1276 9.441C28.8759 11.1745 29.25 13.0266 29.25 14.9974Z" fill="white"/>
</svg>
