<svg width="28" height="23" viewBox="0 0 28 23" fill="none" xmlns="http://www.w3.org/2000/svg">
<path d="M23.805 16.3366L22.3721 14.9038C23.2649 14.0496 23.9656 13.0496 24.4743 11.9038C24.9833 10.7577 25.2378 9.54012 25.2378 8.25095C25.2378 6.96179 24.9833 5.75033 24.4743 4.61658C23.9656 3.48283 23.2649 2.48887 22.3721 1.6347L23.805 0.163452C24.876 1.1922 25.727 2.40533 26.3581 3.80283C26.9893 5.20033 27.305 6.68345 27.305 8.2522C27.305 9.82095 26.9892 11.3025 26.3578 12.6969C25.7263 14.0913 24.8754 15.3045 23.805 16.3366ZM19.7328 12.2644L18.2618 10.7931C18.6127 10.455 18.8927 10.0721 19.1018 9.64439C19.311 9.21647 19.4156 8.75168 19.4156 8.25002C19.4156 7.73231 19.311 7.26356 19.1018 6.84377C18.8927 6.42397 18.6127 6.04502 18.2618 5.70689L19.7328 4.23564C20.2874 4.75168 20.724 5.35064 21.0428 6.03252C21.3617 6.71439 21.5212 7.45356 21.5212 8.25002C21.5212 9.03043 21.3617 9.76564 21.0428 10.4556C20.724 11.1454 20.2874 11.7484 19.7328 12.2644ZM10.0693 12.625C8.86621 12.625 7.83632 12.1966 6.97965 11.3397C6.12277 10.483 5.69434 9.45314 5.69434 8.25002C5.69434 7.04689 6.12277 6.017 6.97965 5.16033C7.83632 4.30345 8.86621 3.87502 10.0693 3.87502C11.2725 3.87502 12.3024 4.30345 13.159 5.16033C14.0159 6.017 14.4443 7.04689 14.4443 8.25002C14.4443 9.45314 14.0159 10.483 13.159 11.3397C12.3024 12.1966 11.2725 12.625 10.0693 12.625ZM0.694336 22.1441V19.3653C0.694336 18.7339 0.855378 18.1622 1.17746 17.6503C1.49954 17.1382 1.94913 16.742 2.52621 16.4616C3.56454 15.9439 4.72642 15.5116 6.01184 15.1647C7.29704 14.8178 8.64954 14.6444 10.0693 14.6444C11.4891 14.6444 12.8417 14.8178 14.1271 15.1647C15.4124 15.5116 16.5741 15.9439 17.6125 16.4616C18.1895 16.742 18.6391 17.1382 18.9612 17.6503C19.2833 18.1622 19.4443 18.7339 19.4443 19.3653V22.1441H0.694336ZM2.56934 20.2691H17.5693V19.3653C17.5693 19.0801 17.492 18.8357 17.3375 18.6322C17.1827 18.4287 16.9876 18.2628 16.7521 18.1347C15.9861 17.7437 15.0145 17.3767 13.8375 17.0338C12.6604 16.6906 11.4043 16.5191 10.0693 16.5191C8.73434 16.5191 7.47829 16.6906 6.30121 17.0338C5.12413 17.3767 4.15257 17.7437 3.38652 18.1347C3.15111 18.2628 2.956 18.4287 2.80121 18.6322C2.64663 18.8357 2.56934 19.0801 2.56934 19.3653V20.2691ZM10.0693 10.75C10.7568 10.75 11.3454 10.5052 11.835 10.0156C12.3245 9.52606 12.5693 8.93752 12.5693 8.25002C12.5693 7.56252 12.3245 6.97397 11.835 6.48439C11.3454 5.99481 10.7568 5.75002 10.0693 5.75002C9.38184 5.75002 8.79329 5.99481 8.30371 6.48439C7.81413 6.97397 7.56934 7.56252 7.56934 8.25002C7.56934 8.93752 7.81413 9.52606 8.30371 10.0156C8.79329 10.5052 9.38184 10.75 10.0693 10.75Z" fill="#171717"/>
</svg>
