<?xml version="1.0" encoding="UTF-8"?>
<svg version="1.1" xmlns="http://www.w3.org/2000/svg" width="50" height="66">
<path d="M0 0 C1.40166664 -0.00956978 1.40166664 -0.00956978 2.83164978 -0.01933289 C3.84828201 -0.02044571 4.86491425 -0.02155853 5.91235352 -0.02270508 C6.94940933 -0.02603348 7.98646515 -0.02936188 9.0549469 -0.03279114 C11.25326085 -0.03786493 13.45158254 -0.04019932 15.64990234 -0.04003906 C19.02332177 -0.04222471 22.39641394 -0.06037347 25.76977539 -0.0793457 C27.90063364 -0.08227962 30.03149345 -0.08426443 32.16235352 -0.08520508 C33.17696152 -0.09239059 34.19156952 -0.09957611 35.23692322 -0.10697937 C36.17451981 -0.10390274 37.11211639 -0.10082611 38.078125 -0.09765625 C38.90561752 -0.09908127 39.73311005 -0.10050629 40.5856781 -0.10197449 C42.60375977 0.14526367 42.60375977 0.14526367 44.60375977 2.14526367 C44.95866394 4.05567932 44.95866394 4.05567932 45.10058594 6.41699219 C45.18139656 7.7465947 45.18139656 7.7465947 45.26383972 9.10305786 C47.07550318 48.92637033 47.07550318 48.92637033 40.14013672 58.53027344 C32.40207082 66.32956848 23.32579313 67.23994743 12.80908203 67.29837036 C-3.45035907 67.09114484 -3.45035907 67.09114484 -5.39624023 65.14526367 C-5.49554556 63.15638873 -5.52423485 61.1639595 -5.52563477 59.17260742 C-5.52878693 57.89458252 -5.53193909 56.61655762 -5.53518677 55.29980469 C-5.53339699 53.894124 -5.53134603 52.48844363 -5.52905273 51.08276367 C-5.52972582 49.65169254 -5.53069588 48.22062152 -5.5319519 46.78955078 C-5.53342867 43.78669143 -5.531275 40.78386177 -5.52661133 37.78100586 C-5.52091404 33.92373796 -5.52419316 30.06653964 -5.53018379 26.20927429 C-5.53378997 23.25312776 -5.53265056 20.29699785 -5.530056 17.34085083 C-5.52938689 15.91822298 -5.53021461 14.49559364 -5.53253555 13.07296753 C-5.53506297 11.08795194 -5.53053066 9.10293109 -5.52563477 7.11791992 C-5.52483917 5.98620361 -5.52404358 4.8544873 -5.52322388 3.68847656 C-5.31205504 -0.5407871 -3.80277494 0.01753413 0 0 Z M-0.39624023 5.14526367 C-0.39624023 17.68526367 -0.39624023 30.22526367 -0.39624023 43.14526367 C4.35106185 39.347422 5.54572655 37.96157613 7.85375977 32.70776367 C8.35391602 31.59530273 8.85407227 30.4828418 9.36938477 29.33666992 C10.4390994 26.57098366 11.1454063 24.06453875 11.60375977 21.14526367 C12.14000977 21.47526367 12.67625977 21.80526367 13.22875977 22.14526367 C16.14286587 23.37225571 18.47243685 23.28759653 21.60375977 23.14526367 C21.60375977 24.13526367 21.60375977 25.12526367 21.60375977 26.14526367 C22.26375977 26.14526367 22.92375977 26.14526367 23.60375977 26.14526367 C27.85191942 21.6948107 28.93822965 18.89594745 28.91625977 12.70776367 C28.83658086 10.85238339 28.7406101 8.9973049 28.60375977 7.14526367 C30.25375977 7.14526367 31.90375977 7.14526367 33.60375977 7.14526367 C33.93375977 6.48526367 34.26375977 5.82526367 34.60375977 5.14526367 C23.05375977 5.14526367 11.50375977 5.14526367 -0.39624023 5.14526367 Z M36.60375977 9.14526367 C36.60375977 21.02526367 36.60375977 32.90526367 36.60375977 45.14526367 C37.59375977 45.14526367 38.58375977 45.14526367 39.60375977 45.14526367 C39.60375977 32.93526367 39.60375977 20.72526367 39.60375977 8.14526367 C38.38015297 8.07072807 38.38015297 8.07072807 36.60375977 9.14526367 Z M27.60375977 21.14526367 C25.19807897 25.0860207 25.19807897 25.0860207 24.91625977 29.52026367 C25.25657227 30.32463867 25.25657227 30.32463867 25.60375977 31.14526367 C23.62375977 32.13526367 23.62375977 32.13526367 21.60375977 33.14526367 C21.60375977 42.38526367 21.60375977 51.62526367 21.60375977 61.14526367 C21.93375977 61.14526367 22.26375977 61.14526367 22.60375977 61.14526367 C22.65274414 60.31381836 22.70172852 59.48237305 22.75219727 58.62573242 C22.82696289 57.53905273 22.90172852 56.45237305 22.97875977 55.33276367 C23.08317383 53.7143457 23.08317383 53.7143457 23.18969727 52.06323242 C23.60375977 49.14526367 23.60375977 49.14526367 25.60375977 46.14526367 C26.59375977 45.81526367 27.58375977 45.48526367 28.60375977 45.14526367 C28.60375977 37.22526367 28.60375977 29.30526367 28.60375977 21.14526367 C28.27375977 21.14526367 27.94375977 21.14526367 27.60375977 21.14526367 Z M11.60375977 26.14526367 C8.63375977 33.07526367 8.63375977 33.07526367 5.60375977 40.14526367 C6.26375977 40.14526367 6.92375977 40.14526367 7.60375977 40.14526367 C7.93375977 41.13526367 8.26375977 42.12526367 8.60375977 43.14526367 C9.26375977 43.14526367 9.92375977 43.14526367 10.60375977 43.14526367 C10.60375977 49.08526367 10.60375977 55.02526367 10.60375977 61.14526367 C11.59375977 61.14526367 12.58375977 61.14526367 13.60375977 61.14526367 C13.60375977 49.59526367 13.60375977 38.04526367 13.60375977 26.14526367 C12.94375977 26.14526367 12.28375977 26.14526367 11.60375977 26.14526367 Z M-0.39624023 44.14526367 C-0.39624023 49.75526367 -0.39624023 55.36526367 -0.39624023 61.14526367 C0.59375977 61.14526367 1.58375977 61.14526367 2.60375977 61.14526367 C2.60375977 56.52526367 2.60375977 51.90526367 2.60375977 47.14526367 C1.94375977 47.14526367 1.28375977 47.14526367 0.60375977 47.14526367 C0.27375977 46.15526367 -0.05624023 45.16526367 -0.39624023 44.14526367 Z M28.60375977 50.14526367 C28.60375977 52.45526367 28.60375977 54.76526367 28.60375977 57.14526367 C29.77335964 56.16960256 30.93937153 55.18963867 32.10375977 54.20776367 C32.75344727 53.66249023 33.40313477 53.1172168 34.07250977 52.55541992 C34.57782227 52.09006836 35.08313477 51.6247168 35.60375977 51.14526367 C35.60375977 50.81526367 35.60375977 50.48526367 35.60375977 50.14526367 C33.29375977 50.14526367 30.98375977 50.14526367 28.60375977 50.14526367 Z " fill="#151515" transform="translate(5.396240234375,-0.145263671875)"/>
<path d="M0 0 C1.32 0 2.64 0 4 0 C4.495 1.98 4.495 1.98 5 4 C4.01 4.33 3.02 4.66 2 5 C2 16.88 2 28.76 2 41 C-0.64 41 -3.28 41 -6 41 C-6.33 33.74 -6.66 26.48 -7 19 C-9.09982581 23.14448881 -9.09982581 23.14448881 -8 27 C-8.66 27.66 -9.32 28.32 -10 29 C-10.99 29 -11.98 29 -13 29 C-13 38.57 -13 48.14 -13 58 C-15.64 58 -18.28 58 -21 58 C-21 46.12 -21 34.24 -21 22 C-21.66 22 -22.32 22 -23 22 C-23.0825 22.66 -23.165 23.32 -23.25 24 C-24.24759791 27.99039163 -26.07166683 31.38549643 -28 35 C-27.34515625 35.45890625 -26.6903125 35.9178125 -26.015625 36.390625 C-22.98076016 40.31948104 -23.5650728 43.93478025 -23.75 48.75 C-23.76804687 49.63816406 -23.78609375 50.52632812 -23.8046875 51.44140625 C-23.85172626 53.62870848 -23.91742991 55.81379816 -24 58 C-26.64 58 -29.28 58 -32 58 C-32 53.05 -32 48.1 -32 43 C-32.66 43 -33.32 43 -34 43 C-34.6875 41.25 -34.6875 41.25 -35 39 C-33.6875 36.75 -33.6875 36.75 -32 35 C-31.34 35 -30.68 35 -30 35 C-29.5978125 33.7934375 -29.5978125 33.7934375 -29.1875 32.5625 C-28.795625 31.386875 -28.40375 30.21125 -28 29 C-27.75894531 28.25363281 -27.51789062 27.50726562 -27.26953125 26.73828125 C-26.88861328 25.56845703 -26.88861328 25.56845703 -26.5 24.375 C-26.2628125 23.64023437 -26.025625 22.90546875 -25.78125 22.1484375 C-25.00043489 20.00119594 -24.06103531 18.02145521 -23 16 C-22.46375 16.309375 -21.9275 16.61875 -21.375 16.9375 C-18.6015043 18.17827439 -15.99957163 18.5909675 -13 19 C-13 19.99 -13 20.98 -13 22 C-12.34 22 -11.68 22 -11 22 C-10.71125 21.21625 -10.4225 20.4325 -10.125 19.625 C-9 17 -9 17 -7 15 C-6.53603307 12.10776497 -6.53603307 12.10776497 -6.375 8.875 C-6.30023438 7.77929688 -6.22546875 6.68359375 -6.1484375 5.5546875 C-6.09945312 4.71164063 -6.05046875 3.86859375 -6 3 C-5.195625 2.87625 -4.39125 2.7525 -3.5625 2.625 C-2.716875 2.41875 -1.87125 2.2125 -1 2 C-0.67 1.34 -0.34 0.68 0 0 Z " fill="#EE5927" transform="translate(40,4)"/>
<path d="M0 0 C1.32 0 2.64 0 4 0 C4.33 1.32 4.66 2.64 5 4 C4.01 4.33 3.02 4.66 2 5 C2 16.88 2 28.76 2 41 C-0.64 41 -3.28 41 -6 41 C-6 28.46 -6 15.92 -6 3 C-4.35 2.67 -2.7 2.34 -1 2 C-0.67 1.34 -0.34 0.68 0 0 Z " fill="#E92128" transform="translate(40,4)"/>
<path d="M0 0 C0.99 0 1.98 0 3 0 C3 6.27 3 12.54 3 19 C0.36 19 -2.28 19 -5 19 C-5 14.05 -5 9.1 -5 4 C-3.68 3.67 -2.36 3.34 -1 3 C-0.67 2.01 -0.34 1.02 0 0 Z " fill="#F49320" transform="translate(13,43)"/>
<path d="M0 0 C1.32 0.66 2.64 1.32 4 2 C3.34 3.32 2.68 4.64 2 6 C1.34 6 0.68 6 0 6 C-0.0825 6.66 -0.165 7.32 -0.25 8 C-1.10379182 11.41516728 -2.57121289 14.02161375 -4.35546875 17.03515625 C-5.26048757 19.05061764 -5.26048757 19.05061764 -4.05859375 21.10546875 C-3.70925781 21.73066406 -3.35992187 22.35585938 -3 23 C-3.875 25.25 -3.875 25.25 -5 27 C-6.98 27 -8.96 27 -11 27 C-11.6875 25.25 -11.6875 25.25 -12 23 C-10.6875 20.75 -10.6875 20.75 -9 19 C-8.34 19 -7.68 19 -7 19 C-6.5978125 17.7934375 -6.5978125 17.7934375 -6.1875 16.5625 C-5.795625 15.386875 -5.40375 14.21125 -5 13 C-4.75894531 12.25363281 -4.51789062 11.50726563 -4.26953125 10.73828125 C-4.01558594 9.95839844 -3.76164063 9.17851562 -3.5 8.375 C-3.2628125 7.64023437 -3.025625 6.90546875 -2.78125 6.1484375 C-2.00043489 4.00119594 -1.06103531 2.02145521 0 0 Z " fill="#5DA8B0" transform="translate(17,20)"/>
<path d="M0 0 C1.65 0.33 3.3 0.66 5 1 C6 4 6 4 5.0625 6.1875 C4.5365625 7.0846875 4.5365625 7.0846875 4 8 C2.02 8 0.04 8 -2 8 C-2.6875 6.25 -2.6875 6.25 -3 4 C-1.5625 1.75 -1.5625 1.75 0 0 Z " fill="#E9F5F6" transform="translate(8,39)"/>
<path d="M0 0 C0.33 0.66 0.66 1.32 1 2 C0.505 2.94875 0.01 3.8975 -0.5 4.875 C-2.10494229 8.21862977 -2.06078822 8.69976997 -1 12 C-1.66 12.66 -2.32 13.32 -3 14 C-4.32 14 -5.64 14 -7 14 C-7.33 12.35 -7.66 10.7 -8 9 C-7.38125 8.773125 -6.7625 8.54625 -6.125 8.3125 C-3.36681217 6.6089134 -3.05034149 5.00097569 -2 2 C-1.34 1.34 -0.68 0.68 0 0 Z " fill="#6EB3BA" transform="translate(33,19)"/>
<path d="M0 0 C1.98 0 3.96 0 6 0 C4.6302836 3.99500618 2.74277578 6.80009492 0 10 C0 6.7 0 3.4 0 0 Z " fill="#F01C23" transform="translate(34,7)"/>
<path d="M0 0 C1.32 0 2.64 0 4 0 C4.33 1.32 4.66 2.64 5 4 C3.68 4.33 2.36 4.66 1 5 C0.34 4.01 -0.32 3.02 -1 2 C-0.67 1.34 -0.34 0.68 0 0 Z " fill="#A8C6CA" transform="translate(40,4)"/>
<path d="M0 0 C1.98 0.495 1.98 0.495 4 1 C3.67 2.32 3.34 3.64 3 5 C1.68 4.67 0.36 4.34 -1 4 C-0.67 2.68 -0.34 1.36 0 0 Z " fill="#0F7F8D" transform="translate(8,41)"/>
</svg>
