<svg width="16" height="20" viewBox="0 0 16 20" fill="none" xmlns="http://www.w3.org/2000/svg">
<path d="M2.30775 19.7429C1.80908 19.7429 1.38308 19.5663 1.02975 19.2132C0.676583 18.8598 0.5 18.4338 0.5 17.9352V8.55067C0.5 8.052 0.676583 7.626 1.02975 7.27267C1.38308 6.9195 1.80908 6.74292 2.30775 6.74292H3.5V4.74292C3.5 3.49425 3.93783 2.43209 4.8135 1.55642C5.68917 0.680753 6.75133 0.24292 8 0.24292C9.24867 0.24292 10.3108 0.680753 11.1865 1.55642C12.0622 2.43209 12.5 3.49425 12.5 4.74292V6.74292H13.6923C14.1909 6.74292 14.6169 6.9195 14.9703 7.27267C15.3234 7.626 15.5 8.052 15.5 8.55067V17.9352C15.5 18.4338 15.3234 18.8598 14.9703 19.2132C14.6169 19.5663 14.1909 19.7429 13.6923 19.7429H2.30775ZM2.30775 18.2429H13.6923C13.7821 18.2429 13.8558 18.2141 13.9135 18.1564C13.9712 18.0988 14 18.025 14 17.9352V8.55067C14 8.46084 13.9712 8.38709 13.9135 8.32942C13.8558 8.27175 13.7821 8.24292 13.6923 8.24292H2.30775C2.21792 8.24292 2.14417 8.27175 2.0865 8.32942C2.02883 8.38709 2 8.46084 2 8.55067V17.9352C2 18.025 2.02883 18.0988 2.0865 18.1564C2.14417 18.2141 2.21792 18.2429 2.30775 18.2429ZM8 14.9929C8.48583 14.9929 8.899 14.8228 9.2395 14.4824C9.57983 14.1419 9.75 13.7288 9.75 13.2429C9.75 12.7571 9.57983 12.3439 9.2395 12.0034C8.899 11.6631 8.48583 11.4929 8 11.4929C7.51417 11.4929 7.101 11.6631 6.7605 12.0034C6.42017 12.3439 6.25 12.7571 6.25 13.2429C6.25 13.7288 6.42017 14.1419 6.7605 14.4824C7.101 14.8228 7.51417 14.9929 8 14.9929ZM5 6.74292H11V4.74292C11 3.90959 10.7083 3.20125 10.125 2.61792C9.54167 2.03459 8.83333 1.74292 8 1.74292C7.16667 1.74292 6.45833 2.03459 5.875 2.61792C5.29167 3.20125 5 3.90959 5 4.74292V6.74292Z" fill="#5F6368"/>
</svg>
