<svg width="20" height="16" viewBox="0 0 20 16" fill="none" xmlns="http://www.w3.org/2000/svg">
<path d="M12.077 9.10941H16.6152V7.60941H12.077V9.10941ZM12.077 6.22491H16.6152V4.72491H12.077V6.22491ZM3.38475 12.0324H10.6923V11.6749C10.6923 11.0082 10.3624 10.4845 9.70275 10.1037C9.04325 9.72283 8.15517 9.53241 7.0385 9.53241C5.92183 9.53241 5.03367 9.72283 4.374 10.1037C3.7145 10.4845 3.38475 11.0082 3.38475 11.6749V12.0324ZM7.0385 8.22491C7.52433 8.22491 7.93742 8.05466 8.27775 7.71416C8.61825 7.37383 8.7885 6.96074 8.7885 6.47491C8.7885 5.98891 8.61825 5.57575 8.27775 5.23541C7.93742 4.89508 7.52433 4.72491 7.0385 4.72491C6.55267 4.72491 6.1395 4.89508 5.799 5.23541C5.45867 5.57575 5.2885 5.98891 5.2885 6.47491C5.2885 6.96074 5.45867 7.37383 5.799 7.71416C6.1395 8.05466 6.55267 8.22491 7.0385 8.22491ZM2.30775 15.8787C1.80258 15.8787 1.375 15.7037 1.025 15.3537C0.675 15.0037 0.5 14.5761 0.5 14.0709V2.68641C0.5 2.18125 0.675 1.75366 1.025 1.40366C1.375 1.05366 1.80258 0.878662 2.30775 0.878662H17.6923C18.1974 0.878662 18.625 1.05366 18.975 1.40366C19.325 1.75366 19.5 2.18125 19.5 2.68641V14.0709C19.5 14.5761 19.325 15.0037 18.975 15.3537C18.625 15.7037 18.1974 15.8787 17.6923 15.8787H2.30775ZM2.30775 14.3787H17.6923C17.7693 14.3787 17.8398 14.3466 17.9038 14.2824C17.9679 14.2184 18 14.1479 18 14.0709V2.68641C18 2.60941 17.9679 2.53891 17.9038 2.47491C17.8398 2.41074 17.7693 2.37866 17.6923 2.37866H2.30775C2.23075 2.37866 2.16025 2.41074 2.09625 2.47491C2.03208 2.53891 2 2.60941 2 2.68641V14.0709C2 14.1479 2.03208 14.2184 2.09625 14.2824C2.16025 14.3466 2.23075 14.3787 2.30775 14.3787Z" fill="#5F6368"/>
</svg>
