<svg width="16" height="15" viewBox="0 0 16 15" fill="none" xmlns="http://www.w3.org/2000/svg">
<path d="M8 7.0708C7.0375 7.0708 6.21358 6.72813 5.52825 6.0428C4.84275 5.3573 4.5 4.5333 4.5 3.5708C4.5 2.6083 4.84275 1.78438 5.52825 1.09905C6.21358 0.413551 7.0375 0.0708008 8 0.0708008C8.9625 0.0708008 9.78642 0.413551 10.4718 1.09905C11.1573 1.78438 11.5 2.6083 11.5 3.5708C11.5 4.5333 11.1573 5.3573 10.4718 6.0428C9.78642 6.72813 8.9625 7.0708 8 7.0708ZM0.5 14.6863V12.4631C0.5 11.9734 0.633 11.5199 0.899 11.1026C1.165 10.6852 1.5205 10.3644 1.9655 10.1401C2.95383 9.65555 3.95092 9.29213 4.95675 9.0498C5.96258 8.80747 6.977 8.6863 8 8.6863C9.023 8.6863 10.0374 8.80747 11.0433 9.0498C12.0491 9.29213 13.0462 9.65555 14.0345 10.1401C14.4795 10.3644 14.835 10.6852 15.101 11.1026C15.367 11.5199 15.5 11.9734 15.5 12.4631V14.6863H0.5ZM2 13.1863H14V12.4631C14 12.2606 13.9413 12.0731 13.824 11.9006C13.7067 11.7282 13.5474 11.5876 13.3462 11.4786C12.4846 11.0542 11.6061 10.7327 10.7107 10.5141C9.81525 10.2956 8.91167 10.1863 8 10.1863C7.08833 10.1863 6.18475 10.2956 5.28925 10.5141C4.39392 10.7327 3.51542 11.0542 2.65375 11.4786C2.45258 11.5876 2.29333 11.7282 2.176 11.9006C2.05867 12.0731 2 12.2606 2 12.4631V13.1863ZM8 5.5708C8.55 5.5708 9.02083 5.37497 9.4125 4.9833C9.80417 4.59163 10 4.1208 10 3.5708C10 3.0208 9.80417 2.54997 9.4125 2.1583C9.02083 1.76663 8.55 1.5708 8 1.5708C7.45 1.5708 6.97917 1.76663 6.5875 2.1583C6.19583 2.54997 6 3.0208 6 3.5708C6 4.1208 6.19583 4.59163 6.5875 4.9833C6.97917 5.37497 7.45 5.5708 8 5.5708Z" fill="#5F6368"/>
</svg>
