<svg width="24" height="25" viewBox="0 0 24 25" fill="none" xmlns="http://www.w3.org/2000/svg">
<path d="M4.30775 20.8787C3.80258 20.8787 3.375 20.7037 3.025 20.3537C2.675 20.0037 2.5 19.5761 2.5 19.0709V8.68641C2.5 8.18125 2.675 7.75366 3.025 7.40366C3.375 7.05366 3.80258 6.87866 4.30775 6.87866H8.5V5.18641C8.5 4.68125 8.675 4.25366 9.025 3.90366C9.375 3.55366 9.80258 3.37866 10.3078 3.37866H13.6923C14.1974 3.37866 14.625 3.55366 14.975 3.90366C15.325 4.25366 15.5 4.68125 15.5 5.18641V6.87866H19.6923C20.1974 6.87866 20.625 7.05366 20.975 7.40366C21.325 7.75366 21.5 8.18125 21.5 8.68641V19.0709C21.5 19.5761 21.325 20.0037 20.975 20.3537C20.625 20.7037 20.1974 20.8787 19.6923 20.8787H4.30775ZM4.30775 19.3787H19.6923C19.7693 19.3787 19.8398 19.3466 19.9038 19.2824C19.9679 19.2184 20 19.1479 20 19.0709V8.68641C20 8.60941 19.9679 8.53891 19.9038 8.47491C19.8398 8.41075 19.7693 8.37866 19.6923 8.37866H4.30775C4.23075 8.37866 4.16025 8.41075 4.09625 8.47491C4.03208 8.53891 4 8.60941 4 8.68641V19.0709C4 19.1479 4.03208 19.2184 4.09625 19.2824C4.16025 19.3466 4.23075 19.3787 4.30775 19.3787ZM10 6.87866H14V5.18641C14 5.10941 13.9679 5.03891 13.9038 4.97491C13.8398 4.91074 13.7692 4.87866 13.6923 4.87866H10.3078C10.2308 4.87866 10.1603 4.91074 10.0963 4.97491C10.0321 5.03891 10 5.10941 10 5.18641V6.87866Z" fill="#5F6368"/>
</svg>
