<svg width="22" height="12" viewBox="0 0 22 12" fill="none" xmlns="http://www.w3.org/2000/svg">
<path d="M1.25006 11.9928V10.4928H20.7501V11.9928H1.25006ZM2.09231 5.98135L1.06156 5.3851L1.96931 3.78909H0.153809V2.5966H1.96931L1.06156 1.0506L2.09231 0.454346L3.00006 2.0006L3.90781 0.454346L4.93856 1.0506L4.03081 2.5966H5.84631V3.78909H4.03081L4.93856 5.3851L3.90781 5.98135L3.00006 4.3851L2.09231 5.98135ZM10.0923 5.98135L9.06156 5.3851L9.96931 3.78909H8.15381V2.5966H9.96931L9.06156 1.0506L10.0923 0.454346L11.0001 2.0006L11.9078 0.454346L12.9386 1.0506L12.0308 2.5966H13.8463V3.78909H12.0308L12.9386 5.3851L11.9078 5.98135L11.0001 4.3851L10.0923 5.98135ZM18.0923 5.98135L17.0616 5.3851L17.9693 3.78909H16.1538V2.5966H17.9693L17.0616 1.0506L18.0923 0.454346L19.0001 2.0006L19.9078 0.454346L20.9386 1.0506L20.0308 2.5966H21.8463V3.78909H20.0308L20.9386 5.3851L19.9078 5.98135L19.0001 4.3851L18.0923 5.98135Z" fill="#5F6368"/>
</svg>
