<svg width="20" height="20" viewBox="0 0 20 20" fill="none" xmlns="http://www.w3.org/2000/svg">
<path d="M2.30775 19.8787C1.80258 19.8787 1.375 19.7037 1.025 19.3537C0.675 19.0037 0.5 18.5761 0.5 18.0709V7.68641C0.5 7.18125 0.675 6.75366 1.025 6.40366C1.375 6.05366 1.80258 5.87866 2.30775 5.87866H7.5V2.37866C7.5 1.96333 7.64617 1.60949 7.9385 1.31716C8.23083 1.02483 8.58467 0.878662 9 0.878662H11C11.4153 0.878662 11.7692 1.02483 12.0615 1.31716C12.3538 1.60949 12.5 1.96333 12.5 2.37866V5.87866H17.6923C18.1974 5.87866 18.625 6.05366 18.975 6.40366C19.325 6.75366 19.5 7.18125 19.5 7.68641V18.0709C19.5 18.5761 19.325 19.0037 18.975 19.3537C18.625 19.7037 18.1974 19.8787 17.6923 19.8787H2.30775ZM2.30775 18.3787H17.6923C17.7821 18.3787 17.8558 18.3498 17.9135 18.2922C17.9712 18.2345 18 18.1607 18 18.0709V7.68641C18 7.59658 17.9712 7.52283 17.9135 7.46516C17.8558 7.4075 17.7821 7.37866 17.6923 7.37866H12.5V7.76341C12.5 8.17225 12.3523 8.52441 12.0568 8.81991C11.7613 9.11541 11.409 9.26316 11 9.26316H9C8.591 9.26316 8.23875 9.11541 7.94325 8.81991C7.64775 8.52441 7.5 8.17225 7.5 7.76341V7.37866H2.30775C2.21792 7.37866 2.14417 7.4075 2.0865 7.46516C2.02883 7.52283 2 7.59658 2 7.68641V18.0709C2 18.1607 2.02883 18.2345 2.0865 18.2922C2.14417 18.3498 2.21792 18.3787 2.30775 18.3787ZM4.15375 16.0902H9.84625V15.7939C9.84625 15.5362 9.77508 15.2994 9.63275 15.0834C9.49042 14.8674 9.29358 14.6992 9.04225 14.5787C8.71542 14.435 8.38433 14.3273 8.049 14.2557C7.71383 14.1838 7.36417 14.1479 7 14.1479C6.63583 14.1479 6.28617 14.1838 5.951 14.2557C5.61567 14.3273 5.28458 14.435 4.95775 14.5787C4.70642 14.6992 4.50958 14.8674 4.36725 15.0834C4.22492 15.2994 4.15375 15.5362 4.15375 15.7939V16.0902ZM12 14.5709H16V13.3787H12V14.5709ZM7 13.3787C7.37183 13.3787 7.68917 13.2472 7.952 12.9844C8.21483 12.7216 8.34625 12.4042 8.34625 12.0324C8.34625 11.6607 8.21483 11.3435 7.952 11.0807C7.68917 10.8178 7.37183 10.6864 7 10.6864C6.62817 10.6864 6.31083 10.8178 6.048 11.0807C5.78517 11.3435 5.65375 11.6607 5.65375 12.0324C5.65375 12.4042 5.78517 12.7216 6.048 12.9844C6.31083 13.2472 6.62817 13.3787 7 13.3787ZM12 11.8787H16V10.6864H12V11.8787ZM9 7.76341H11V2.37866H9V7.76341Z" fill="#5F6368"/>
</svg>
