<svg width="20" height="15" viewBox="0 0 20 15" fill="none" xmlns="http://www.w3.org/2000/svg">
<path d="M2 14.3787C1.45 14.3787 0.979167 14.1828 0.5875 13.7912C0.195833 13.3995 0 12.9287 0 12.3787V2.37866C0 1.82866 0.195833 1.35783 0.5875 0.966162C0.979167 0.574495 1.45 0.378662 2 0.378662H18C18.55 0.378662 19.0208 0.574495 19.4125 0.966162C19.8042 1.35783 20 1.82866 20 2.37866V12.3787C20 12.9287 19.8042 13.3995 19.4125 13.7912C19.0208 14.1828 18.55 14.3787 18 14.3787H2ZM2 12.3787H18V2.37866H2V12.3787ZM6 11.3787H14V9.37866H6V11.3787ZM3 8.37866H5V6.37866H3V8.37866ZM6 8.37866H8V6.37866H6V8.37866ZM9 8.37866H11V6.37866H9V8.37866ZM12 8.37866H14V6.37866H12V8.37866ZM15 8.37866H17V6.37866H15V8.37866ZM3 5.37866H5V3.37866H3V5.37866ZM6 5.37866H8V3.37866H6V5.37866ZM9 5.37866H11V3.37866H9V5.37866ZM12 5.37866H14V3.37866H12V5.37866ZM15 5.37866H17V3.37866H15V5.37866Z" fill="#5F6368"/>
</svg>
