<svg width="22" height="18" viewBox="0 0 22 18" fill="none" xmlns="http://www.w3.org/2000/svg">
<path d="M0.482727 17.5961V15.3731C0.482727 14.8809 0.61156 14.4284 0.869227 14.0156C1.12689 13.6027 1.48648 13.2809 1.94798 13.0501C2.77881 12.6296 3.70831 12.2822 4.73648 12.0078C5.76464 11.7335 6.84673 11.5963 7.98273 11.5963C9.11856 11.5963 10.2006 11.7335 11.2287 12.0078C12.2569 12.2822 13.1864 12.6296 14.0172 13.0501C14.4787 13.2809 14.8383 13.6027 15.096 14.0156C15.3538 14.4284 15.4827 14.8809 15.4827 15.3731V17.5961H0.482727ZM1.98273 16.0963H13.9827V15.3731C13.9827 15.1449 13.9208 14.9494 13.797 14.7866C13.6733 14.6237 13.5172 14.4911 13.3287 14.3886C12.7159 14.0757 11.9386 13.7822 10.997 13.5078C10.0553 13.2335 9.05056 13.0963 7.98273 13.0963C6.91473 13.0963 5.90989 13.2335 4.96823 13.5078C4.02656 13.7822 3.24931 14.0757 2.63648 14.3886C2.44798 14.4911 2.29189 14.6237 2.16823 14.7866C2.04456 14.9494 1.98273 15.1449 1.98273 15.3731V16.0963ZM7.98273 9.98083C7.00456 9.98083 6.17664 9.64207 5.49898 8.96457C4.82148 8.28691 4.48273 7.43974 4.48273 6.42307H4.25198C4.12114 6.42307 4.01473 6.38207 3.93273 6.30008C3.85073 6.21807 3.80973 6.11166 3.80973 5.98082C3.80973 5.85016 3.85073 5.74374 3.93273 5.66158C4.01473 5.57958 4.12114 5.53857 4.25198 5.53857H4.48273C4.49556 4.91041 4.64039 4.34282 4.91723 3.83582C5.19423 3.32866 5.58781 2.89366 6.09798 2.53082V3.48082C6.09798 3.61166 6.13906 3.71807 6.22123 3.80007C6.30323 3.88224 6.40964 3.92332 6.54048 3.92332C6.67114 3.92332 6.77748 3.88224 6.85948 3.80007C6.94164 3.71807 6.98273 3.61166 6.98273 3.48082V2.15007C7.12623 2.10007 7.28298 2.05941 7.45298 2.02807C7.62281 1.99657 7.79939 1.98082 7.98273 1.98082C8.16606 1.98082 8.34264 1.99657 8.51248 2.02807C8.68231 2.05941 8.83906 2.10007 8.98273 2.15007V3.48082C8.98273 3.61166 9.02373 3.71807 9.10573 3.80007C9.18773 3.88224 9.29414 3.92332 9.42498 3.92332C9.55581 3.92332 9.66223 3.88224 9.74423 3.80007C9.82623 3.71807 9.86723 3.61166 9.86723 3.48082V2.53082C10.3839 2.89366 10.7791 3.32866 11.0527 3.83582C11.3266 4.34282 11.4699 4.91041 11.4827 5.53857H11.7135C11.8441 5.53857 11.9506 5.57958 12.0327 5.66158C12.1147 5.74374 12.1557 5.85016 12.1557 5.98082C12.1557 6.11166 12.1147 6.21807 12.0327 6.30008C11.9506 6.38207 11.8441 6.42307 11.7135 6.42307H11.4827C11.4827 7.43974 11.1439 8.28691 10.4662 8.96457C9.78873 9.64207 8.96089 9.98083 7.98273 9.98083ZM7.98273 8.48083C8.54556 8.48083 9.01956 8.28824 9.40473 7.90307C9.79006 7.51774 9.98273 7.04366 9.98273 6.48082H5.98273C5.98273 7.04366 6.17531 7.51774 6.56048 7.90307C6.94581 8.28824 7.41989 8.48083 7.98273 8.48083ZM15.502 11.9231L15.3905 11.1923C15.2776 11.159 15.1641 11.1135 15.05 11.0558C14.9358 10.9982 14.8339 10.9244 14.7442 10.8346L14.0635 11.1038L13.6212 10.3193L14.1905 9.85783C14.1776 9.79499 14.1712 9.73532 14.1712 9.67882V9.32608C14.1712 9.27291 14.1776 9.21166 14.1905 9.14233L13.6212 8.68083L14.0635 7.89632L14.7442 8.16557C14.8237 8.08607 14.9231 8.01491 15.0422 7.95208C15.1616 7.88924 15.2776 7.84116 15.3905 7.80782L15.502 7.07708H16.3865L16.498 7.80782C16.6108 7.84116 16.7269 7.88924 16.8462 7.95208C16.9654 8.01491 17.0647 8.08607 17.1442 8.16557L17.825 7.89632L18.2672 8.68083L17.698 9.14233C17.7108 9.21166 17.7172 9.27291 17.7172 9.32608V9.67882C17.7172 9.73532 17.7108 9.79499 17.698 9.85783L18.2672 10.3193L17.825 11.1038L17.1442 10.8346C17.0544 10.9244 16.9525 10.9982 16.8385 11.0558C16.7243 11.1135 16.6108 11.159 16.498 11.1923L16.3865 11.9231H15.502ZM15.9442 10.3271C16.1699 10.3271 16.3641 10.2457 16.527 10.0828C16.6898 9.91999 16.7712 9.72574 16.7712 9.50008C16.7712 9.27441 16.6898 9.08016 16.527 8.91733C16.3641 8.75449 16.1699 8.67308 15.9442 8.67308C15.7186 8.67308 15.5243 8.75449 15.3615 8.91733C15.1986 9.08016 15.1172 9.27441 15.1172 9.50008C15.1172 9.72574 15.1986 9.91999 15.3615 10.0828C15.5243 10.2457 15.7186 10.3271 15.9442 10.3271ZM17.8595 6.71158L17.7172 5.79632C17.5481 5.75266 17.3801 5.68374 17.2135 5.58958C17.0468 5.49524 16.9071 5.38207 16.7942 5.25007L15.898 5.58082L15.3327 4.61158L16.0865 3.99632C16.0531 3.90649 16.0333 3.82374 16.027 3.74807C16.0205 3.67241 16.0172 3.58974 16.0172 3.50007C16.0172 3.41041 16.0205 3.32774 16.027 3.25208C16.0333 3.17641 16.0531 3.09366 16.0865 3.00383L15.3327 2.38857L15.898 1.41933L16.7942 1.75007C16.9071 1.61807 17.0468 1.50491 17.2135 1.41057C17.3801 1.31641 17.5481 1.24749 17.7172 1.20383L17.8595 0.288574H18.9902L19.1327 1.20383C19.3019 1.24749 19.4698 1.31641 19.6365 1.41057C19.8031 1.50491 19.9429 1.61807 20.0557 1.75007L20.952 1.41933L21.5172 2.38857L20.7635 3.00383C20.7968 3.09366 20.8166 3.17641 20.823 3.25208C20.8295 3.32774 20.8327 3.41041 20.8327 3.50007C20.8327 3.58974 20.8295 3.67241 20.823 3.74807C20.8166 3.82374 20.7968 3.90649 20.7635 3.99632L21.5172 4.61158L20.952 5.58082L20.0557 5.25007C19.9429 5.38207 19.8031 5.49524 19.6365 5.58958C19.4698 5.68374 19.3019 5.75266 19.1327 5.79632L18.9902 6.71158H17.8595ZM18.425 4.80782C18.7941 4.80782 19.1044 4.68216 19.3557 4.43082C19.6071 4.17949 19.7327 3.86924 19.7327 3.50007C19.7327 3.13091 19.6071 2.82066 19.3557 2.56933C19.1044 2.31799 18.7941 2.19232 18.425 2.19232C18.0558 2.19232 17.7456 2.31799 17.4942 2.56933C17.2429 2.82066 17.1172 3.13091 17.1172 3.50007C17.1172 3.86924 17.2429 4.17949 17.4942 4.43082C17.7456 4.68216 18.0558 4.80782 18.425 4.80782Z" fill="#171717"/>
</svg>
